<?xml version="1.0" encoding="UTF-8" standalone="no"?>
<!-- Created with Inkscape (http://www.inkscape.org/) -->

<svg
   xmlns:dc="http://purl.org/dc/elements/1.1/"
   xmlns:cc="http://creativecommons.org/ns#"
   xmlns:rdf="http://www.w3.org/1999/02/22-rdf-syntax-ns#"
   xmlns:svg="http://www.w3.org/2000/svg"
   xmlns="http://www.w3.org/2000/svg"
   xmlns:sodipodi="http://sodipodi.sourceforge.net/DTD/sodipodi-0.dtd"
   xmlns:inkscape="http://www.inkscape.org/namespaces/inkscape"
   width="305.93567"
   height="166.40805"
   viewBox="0 0 305.93567 166.40805"
   version="1.1"
   id="svg1730"
   inkscape:version="0.92.5 (2060ec1f9f, 2020-04-08)"
   sodipodi:docname="icono_con_texto_ipvvenezuela.svg"
   inkscape:export-filename="/home/eduardo/icbpvvzla/inicio/icono_con_texto_ipvvenezuela.png"
   inkscape:export-xdpi="96"
   inkscape:export-ydpi="96">
  <defs
     id="defs1724">
    <inkscape:perspective
       sodipodi:type="inkscape:persp3d"
       inkscape:vp_x="0 : 460 : 1"
       inkscape:vp_y="0 : 1000 : 0"
       inkscape:vp_z="420 : 460 : 1"
       inkscape:persp3d-origin="210 : 306.66667 : 1"
       id="perspective5322" />
    <filter
       inkscape:label="Organic"
       inkscape:menu="Textures"
       inkscape:menu-tooltip="Bulging, knotty, slick 3D surface"
       style="color-interpolation-filters:sRGB"
       id="filter3892">
      <feTurbulence
         numOctaves="3"
         baseFrequency="0.037"
         result="result0"
         id="feTurbulence3876" />
      <feSpecularLighting
         specularExponent="24.29999924"
         surfaceScale="2"
         specularConstant="1"
         result="result1"
         id="feSpecularLighting3880">
        <feDistantLight
           elevation="45"
           azimuth="225"
           id="feDistantLight3878" />
      </feSpecularLighting>
      <feDiffuseLighting
         in="result0"
         surfaceScale="3"
         diffuseConstant="1.21000004"
         id="feDiffuseLighting3884">
        <feDistantLight
           azimuth="225"
           elevation="42"
           id="feDistantLight3882" />
      </feDiffuseLighting>
      <feBlend
         in2="SourceGraphic"
         mode="multiply"
         result="result91"
         id="feBlend3886" />
      <feComposite
         operator="arithmetic"
         in="result1"
         k2="1"
         k3="1"
         in2="result91"
         id="feComposite3888"
         k1="0"
         k4="0" />
      <feComposite
         in2="SourceAlpha"
         operator="in"
         result="result2"
         id="feComposite3890" />
    </filter>
  </defs>
  <sodipodi:namedview
     id="base"
     pagecolor="#000000"
     bordercolor="#666666"
     borderopacity="1.0"
     inkscape:pageopacity="0"
     inkscape:pageshadow="2"
     inkscape:zoom="1.4142136"
     inkscape:cx="64.996659"
     inkscape:cy="148.32642"
     inkscape:document-units="px"
     inkscape:current-layer="layer5"
     showgrid="false"
     units="px"
     inkscape:showpageshadow="false"
     inkscape:window-width="1366"
     inkscape:window-height="704"
     inkscape:window-x="0"
     inkscape:window-y="27"
     inkscape:window-maximized="1"
     showguides="false"
     inkscape:guide-bbox="true"
     inkscape:snap-bbox="true"
     inkscape:bbox-nodes="true"
     inkscape:snap-bbox-edge-midpoints="true"
     inkscape:snap-bbox-midpoints="true"
     showborder="true"
     inkscape:snap-global="false"
     fit-margin-top="0"
     fit-margin-left="-0.5"
     fit-margin-right="0"
     fit-margin-bottom="0"
     inkscape:pagecheckerboard="false"
     borderlayer="false">
    <sodipodi:guide
       position="-60.771817,-1996.324"
       orientation="1,0"
       id="guide889"
       inkscape:locked="false" />
    <sodipodi:guide
       position="149.22818,-1925.6009"
       orientation="0,1"
       id="guide3930"
       inkscape:locked="false" />
    <sodipodi:guide
       position="359.22818,-2845.5696"
       orientation="1,0"
       id="guide3932"
       inkscape:locked="false" />
    <sodipodi:guide
       position="146.72818,-1828.6329"
       orientation="1,0"
       id="guide1679"
       inkscape:locked="false" />
    <sodipodi:guide
       position="488.19119,-2385.6009"
       orientation="0,1"
       id="guide1689"
       inkscape:locked="false" />
    <sodipodi:guide
       position="149.22818,474.39915"
       orientation="0,1"
       id="guide3396"
       inkscape:locked="false" />
    <sodipodi:guide
       position="691.82669,474.39915"
       orientation="1,0"
       id="guide3400"
       inkscape:locked="false" />
    <sodipodi:guide
       position="-395.31934,474.39915"
       orientation="1,0"
       id="guide3402"
       inkscape:locked="false" />
    <sodipodi:guide
       position="-60.771817,14.399149"
       orientation="0,1"
       id="guide987"
       inkscape:locked="false" />
    <sodipodi:guide
       position="149.22818,-845.60085"
       orientation="0,1"
       id="guide2016"
       inkscape:locked="false" />
    <sodipodi:guide
       position="149.22818,-645.60085"
       orientation="0,1"
       id="guide2018"
       inkscape:locked="false" />
    <sodipodi:guide
       position="149.22818,-1045.6009"
       orientation="0,1"
       id="guide2020"
       inkscape:locked="false" />
    <sodipodi:guide
       position="149.22818,-1245.6009"
       orientation="0,1"
       id="guide2022"
       inkscape:locked="false" />
    <sodipodi:guide
       position="359.22818,-1445.6009"
       orientation="0,1"
       id="guide2400"
       inkscape:locked="false" />
    <sodipodi:guide
       position="359.22818,-745.60085"
       orientation="0,1"
       id="guide3864"
       inkscape:locked="false" />
  </sodipodi:namedview>
  <metadata
     id="metadata1727">
    <rdf:RDF>
      <cc:Work
         rdf:about="">
        <dc:format>image/svg+xml</dc:format>
        <dc:type
           rdf:resource="http://purl.org/dc/dcmitype/StillImage" />
        <dc:title />
      </cc:Work>
    </rdf:RDF>
  </metadata>
  <g
     inkscape:groupmode="layer"
     id="layer3"
     inkscape:label="Fondos"
     style="display:inline"
     transform="translate(-60.771817,2092.0089)" />
  <g
     inkscape:groupmode="layer"
     id="layer8"
     inkscape:label="Pie de página"
     transform="translate(-60.771817,2092.0089)"
     style="display:inline" />
  <g
     inkscape:groupmode="layer"
     id="layer9"
     inkscape:label="Sombra p2"
     transform="translate(-60.771817,2092.0089)"
     style="display:inline;opacity:0.36600001" />
  <g
     inkscape:groupmode="layer"
     id="layer6"
     inkscape:label="fondos mate p2"
     style="display:inline"
     transform="translate(-60.771817,2092.0089)">
    <text
       xml:space="preserve"
       style="font-style:normal;font-variant:normal;font-weight:bold;font-stretch:normal;font-size:6.66666651px;line-height:1.25;font-family:sans-serif;-inkscape-font-specification:'sans-serif Bold';letter-spacing:0px;word-spacing:0px;fill:#000000;fill-opacity:1;stroke:none"
       x="240.57556"
       y="-1287.0713"
       id="text1965"><tspan
         sodipodi:role="line"
         id="tspan1963"
         x="240.57556"
         y="-1281.1729" /></text>
  </g>
  <g
     inkscape:groupmode="layer"
     id="layer10"
     inkscape:label="imágenes"
     transform="translate(-60.771817,-307.9911)">
    <text
       xml:space="preserve"
       style="font-style:normal;font-variant:normal;font-weight:bold;font-stretch:normal;font-size:6.66666651px;line-height:1.25;font-family:sans-serif;-inkscape-font-specification:'sans-serif Bold';letter-spacing:0px;word-spacing:0px;fill:#000000;fill-opacity:1;stroke:none"
       x="149.90665"
       y="1490.0077"
       id="text2132"><tspan
         sodipodi:role="line"
         id="tspan2130"
         x="149.90665"
         y="1495.9061" /></text>
  </g>
  <g
     inkscape:groupmode="layer"
     id="layer2"
     inkscape:label="Sombras forma central"
     style="display:inline;opacity:1"
     transform="translate(-60.771817,2092.0089)" />
  <g
     inkscape:groupmode="layer"
     id="layer4"
     inkscape:label="fondos mate p1"
     style="display:inline"
     transform="translate(-60.771817,2092.0089)" />
  <g
     inkscape:groupmode="layer"
     id="layer11"
     inkscape:label="figuras de web"
     transform="translate(-60.771817,-307.9911)" />
  <g
     inkscape:groupmode="layer"
     id="layer5"
     inkscape:label="texto"
     style="display:inline;opacity:0.98999999"
     transform="translate(-60.771817,2092.0089)">
    <path
       style="display:inline;opacity:1;fill:#414141;fill-opacity:1;stroke:none;stroke-width:1.15977609;stroke-linecap:round;stroke-miterlimit:4;stroke-dasharray:none;stroke-opacity:1"
       d="m 210.65509,-2042.8422 v 7.7754 5.7051 5.9004 9.6914 h 0.008 c 0.29452,3.2139 3.00032,4.9357 5.06641,4.916 h 1.03125 19.55273 6.03321 6.03711 v -0.7754 h -1.03125 c -1.97003,0.017 -4.51756,-1.5173 -5.00586,-4.3887 v -22.7168 h -0.008 v -1.0312 c 0.0195,-2.0661 -1.702,-4.7719 -4.91601,-5.0664 l 0.004,-0.01 h -15.59179 -5.70703 z"
       id="path1679"
       inkscape:connector-curvature="0" />
    <path
       style="display:inline;opacity:1;fill:#414141;fill-opacity:0.99215686;stroke:none;stroke-width:1.15977609;stroke-linecap:round;stroke-miterlimit:4;stroke-dasharray:none;stroke-opacity:1"
       d="m 166.43505,-2009.0441 v -0.777 h 1.0317 c 1.96763,0.018 4.51002,-1.5133 5.00268,-4.3779 v -22.7237 -1.0317 c -0.0195,-2.0662 1.702,-4.7718 4.91601,-5.0664 0,0 -6.6e-4,-0.011 -0.003,-0.011 h 15.59212 5.70702 5.48048 v 7.7721 5.707 15.5921 c -0.004,-3e-4 -0.005,-0.011 -0.008,-0.011 -0.29449,3.2141 -3.00034,4.9354 -5.06641,4.9161 h -1.03169 v 0 h -19.55237 -6.03439 z"
       id="path1509"
       inkscape:connector-curvature="0" />
    <path
       inkscape:connector-curvature="0"
       id="path1507"
       d="m 157.73472,-2092.0089 v 0.9562 h 1.26957 c 2.42141,-0.023 5.55008,1.8621 6.15639,5.3875 v 27.9639 1.2695 c -0.0239,2.5427 2.09443,5.8725 6.04964,6.2347 0,0.011 -0.003,0.011 -0.003,0.012 h 19.18776 7.02307 6.74435 v -9.5646 -7.0231 -19.1876 c -0.005,4e-4 -0.006,0.011 -0.0108,0.011 -0.36243,-3.9551 -3.69224,-6.0735 -6.23477,-6.0496 h -1.26959 v 0 h -24.06129 -7.42597 z"
       style="display:inline;opacity:1;fill:#3394b3;fill-opacity:1;stroke:none;stroke-width:1.15977609;stroke-linecap:round;stroke-miterlimit:4;stroke-dasharray:none;stroke-opacity:1" />
    <g
       aria-label="palabra"
       transform="matrix(1.0547507,0,0,1.0547507,63.074323,-1713.3258)"
       style="font-style:normal;font-variant:normal;font-weight:bold;font-stretch:normal;font-size:6.66666651px;line-height:1.25;font-family:sans-serif;-inkscape-font-specification:'sans-serif Bold';letter-spacing:0px;word-spacing:0px;display:inline;fill:#414141;fill-opacity:1;stroke:none;stroke-width:1.09957361"
       id="flowRoot10458">
      <path
         d="m 19.902969,-231.02733 q -1.36,3.12 -5.04,4.32 -1.08,0.36 -2,0.36 -2.84,0 -5.0800003,-1.48 v -0.4 q 3.0000003,0.08 4.8400003,-1.96 1.64,-1.76 1.64,-4.6 0,-4.36 -3.04,-5.64 -0.96,-0.4 -2.1200002,-0.4 h -2.68 v 23.4 q 0,1.04 0.7599999,1.8 0.7600001,0.72 1.8000001,0.72 h 0.52 v 0.4 H -2.6570313 v -0.4 h 0.5200001 q 1.04,0 1.75999995,-0.72 0.76,-0.76 0.8,-1.8 v -22.36 q -0.16,-1.36 -1.36,-2 -0.55999995,-0.32 -1.19999995,-0.32 h -0.5200001 v -0.4 H 10.702969 q 7.24,0 9.28,4.6 0.64,1.52 0.64,3.4 0,1.84 -0.72,3.48 z"
         style="font-style:normal;font-variant:normal;font-weight:bold;font-stretch:normal;font-size:40px;font-family:'Cinzel Decorative';-inkscape-font-specification:'Cinzel Decorative Bold';fill:#414141;fill-opacity:1;stroke-width:0.81232876"
         id="path901" />
      <path
         d="m 48.582866,-214.90733 h 0.36 v 0.4 h -12.76 v -0.4 h 0.36 q 0.88,0 1.28,-0.52 0.44,-0.56 0.44,-1.04 0,-0.48 -0.2,-0.96 l -1.96,-4.92 h -9.36 l -2.08,4.92 q -0.2,0.52 -0.2,1 0,0.44 0.4,1 0.44,0.52 1.36,0.52 h 0.32 v 0.4 h -8.56 v -0.4 h 0.36 q 0.92,0 1.84,-0.56 0.92,-0.56 1.52,-1.68 l 9.24,-20.92 q 1.88,-3.96 2,-5.24 h 0.36 l 11.88,26.08 q 0.6,1.16 1.52,1.76 0.92,0.56 1.88,0.56 z m -21.16,-9.12 h 8 l -3.88,-9.84 z"
         style="font-style:normal;font-variant:normal;font-weight:bold;font-stretch:normal;font-size:40px;font-family:'Cinzel Decorative';-inkscape-font-specification:'Cinzel Decorative Bold';fill:#414141;fill-opacity:1;stroke-width:0.81232876"
         id="path903" />
      <path
         d="m 49.90285,-214.90733 q 1.04,0 1.76,-0.72 0.76,-0.76 0.8,-1.8 v -22.16 q -0.04,-1.04 -0.8,-1.76 -0.72,-0.76 -1.76,-0.76 h -0.52 v -0.4 h 12.16 l -0.04,0.4 h -0.48 q -1.04,0 -1.8,0.76 -0.76,0.72 -0.76,1.76 v 23.36 h 5.24 q 2.92,0 4.88,-1.68 2,-1.68 2.96,-4.76 h 0.4 l -1.84,8.16 h -20.72 v -0.4 z"
         style="font-style:normal;font-variant:normal;font-weight:bold;font-stretch:normal;font-size:40px;font-family:'Cinzel Decorative';-inkscape-font-specification:'Cinzel Decorative Bold';fill:#414141;fill-opacity:1;stroke-width:0.81232876"
         id="path905" />
      <path
         d="m 101.86282,-214.90733 h 0.36 v 0.4 H 89.462819 v -0.4 h 0.36 q 0.88,0 1.28,-0.52 0.44,-0.56 0.44,-1.04 0,-0.48 -0.2,-0.96 l -1.96,-4.92 h -9.36 l -2.08,4.92 q -0.2,0.52 -0.2,1 0,0.44 0.4,1 0.44,0.52 1.36,0.52 h 0.32 v 0.4 h -8.56 v -0.4 h 0.36 q 0.92,0 1.84,-0.56 0.92,-0.56 1.52,-1.68 l 9.24,-20.92 q 1.88,-3.96 2,-5.24 h 0.36 l 11.88,26.08 q 0.6,1.16 1.52,1.76 0.920001,0.56 1.880001,0.56 z m -21.160001,-9.12 h 8 l -3.88,-9.84 z"
         style="font-style:normal;font-variant:normal;font-weight:bold;font-stretch:normal;font-size:40px;font-family:'Cinzel Decorative';-inkscape-font-specification:'Cinzel Decorative Bold';fill:#414141;fill-opacity:1;stroke-width:0.81232876"
         id="path907" />
      <path
         d="m 115.3428,-214.50733 h -12.68 v -0.4 h 0.52 q 1.04,0 1.76,-0.72 0.76,-0.72 0.8,-1.76 v -22.24 q -0.04,-1.04 -0.8,-1.76 -0.72,-0.72 -1.76,-0.72 h -0.52 v -0.4 h 11.6 q 4.64,0 7.36,1.68 2.76,1.68 2.8,5.16 -0.04,1.76 -0.76,3.08 -1.32,2.48 -4.16,2.84 3.08,0.28 5.08,2.32 2,2 2,5.12 0,3.76 -3.04,5.8 -3,2 -8.2,2 z m 2.68,-20.64 q -0.04,-5.64 -5.12,-5.64 h -1.16 v 24.44 h 1.84 q 0.04,0 0.08,0 2.76,0 4.4,-1.6 1.64,-1.6 1.64,-4.84 0,-2.28 -0.92,-3.76 -1.72,-2.76 -5.68,-2.76 0,0 0,0 v -0.36 q 0,0 0,0 2.08,0 3.48,-1.32 1.4,-1.36 1.44,-4.16 z"
         style="font-style:normal;font-variant:normal;font-weight:bold;font-stretch:normal;font-size:40px;font-family:'Cinzel Decorative';-inkscape-font-specification:'Cinzel Decorative Bold';fill:#414141;fill-opacity:1;stroke-width:0.81232876"
         id="path909" />
      <path
         d="m 140.46268,-240.74733 h -1.72 q -0.08,0 -0.12,0 v 23.32 q 0.04,1.48 1.28,2.2 0.6,0.32 1.28,0.32 h 0.52 v 0.4 h -12.16 v -0.4 h 0.52 q 1.44,0 2.2,-1.24 0.32,-0.56 0.36,-1.24 v -22.2 q -0.04,-1.04 -0.8,-1.76 -0.72,-0.76 -1.76,-0.76 h -0.52 v -0.4 h 13.72 q 3.88,0 6.56,1.68 1.36,0.84 2.16,2.36 0.8,1.48 0.8,3.4 0,1.88 -0.68,3.48 -0.64,1.6 -2.2,2.8 -1.52,1.2 -3.68,1.44 2.32,0.76 4.08,3.52 4.32,6.92 6.4,8.24 1.04,0.64 2.6,0.68 v 0.4 h -3.92 q -3.4,0 -5.68,-0.92 -2.28,-0.96 -3.72,-3.24 -0.72,-1.16 -1.84,-3.48 -1.12,-2.36 -1.48,-3.36 -1.08,-2.4 -2.72,-2.68 v -0.4 h 1.24 q 1.8,0 3.16,-1.08 1.4,-1.08 1.88,-3.52 0.16,-0.84 0.16,-1.32 0,-3.28 -1.32,-4.72 -1.32,-1.48 -3.4,-1.52 -0.4,0 -1.2,0 z"
         style="font-style:normal;font-variant:normal;font-weight:bold;font-stretch:normal;font-size:40px;font-family:'Cinzel Decorative';-inkscape-font-specification:'Cinzel Decorative Bold';fill:#414141;fill-opacity:1;stroke-width:0.81232876"
         id="path911" />
      <path
         d="m 186.62257,-214.90733 h 0.36 v 0.4 h -12.76 v -0.4 h 0.36 q 0.88,0 1.28,-0.52 0.44,-0.56 0.44,-1.04 0,-0.48 -0.2,-0.96 l -1.96,-4.92 h -9.36 l -2.08,4.92 q -0.2,0.52 -0.2,1 0,0.44 0.4,1 0.44,0.52 1.36,0.52 h 0.32 v 0.4 h -8.56 v -0.4 h 0.36 q 0.92,0 1.84,-0.56 0.92,-0.56 1.52,-1.68 l 9.24,-20.92 q 1.88,-3.96 2,-5.24 h 0.36 l 11.88,26.08 q 0.6,1.16 1.52,1.76 0.92,0.56 1.88,0.56 z m -21.16,-9.12 h 8 l -3.88,-9.84 z"
         style="font-style:normal;font-variant:normal;font-weight:bold;font-stretch:normal;font-size:40px;font-family:'Cinzel Decorative';-inkscape-font-specification:'Cinzel Decorative Bold';fill:#414141;fill-opacity:1;stroke-width:0.81232876"
         id="path913" />
    </g>
    <g
       aria-label="V"
       transform="matrix(1.927156,0,0,1.8713491,257.16038,-1526.5778)"
       style="font-style:normal;font-variant:normal;font-weight:bold;font-stretch:normal;font-size:6.66666651px;line-height:1.25;font-family:sans-serif;-inkscape-font-specification:'sans-serif Bold';letter-spacing:0px;word-spacing:0px;display:inline;fill:#3394b3;fill-opacity:1;stroke:none;stroke-width:1.09957361"
       id="flowRoot10522">
      <path
         d="m 32.582969,-252.42733 q 1,0 1.68,0.08 v 0.4 q -2.48,0.12 -4.28,1.2 -2.04,1.24 -2.92,2.32 -0.84,1.04 -1.36,1.72 -0.48,0.64 -0.96,1.56 -0.76,1.4 -1.4,2.76 l -10.72,23.44 q -1.84,3.96 -1.96,5.24 h -0.36 l -12.1200002,-26.12 q -0.6000001,-1.12 -1.5200001,-1.68 -0.9199999,-0.6 -1.8799999,-0.6 h -0.32 v -0.4 H 7.1829687 v 0.4 h -0.32 q -0.8799999,0 -1.32,0.56 -0.4,0.52 -0.4,1 0,0.48 0.16,0.96 l 6.8000003,16.52 8.28,-19.32 q 1.88,-4.44 4.4,-6.68 3.72,-3.36 7.8,-3.36 z"
         style="font-style:normal;font-variant:normal;font-weight:bold;font-stretch:normal;font-size:40px;font-family:'Cinzel Decorative';-inkscape-font-specification:'Cinzel Decorative Bold';fill:#3394b3;fill-opacity:1;stroke-width:0.81232876"
         id="path898" />
    </g>
    <g
       aria-label="iva"
       transform="matrix(1.0547507,0,0,1.0547507,297.74482,-1700.1929)"
       style="font-style:normal;font-variant:normal;font-weight:bold;font-stretch:normal;font-size:6.66666651px;line-height:1.25;font-family:sans-serif;-inkscape-font-specification:'sans-serif Bold';letter-spacing:0px;word-spacing:0px;display:inline;fill:#3394b3;fill-opacity:1;stroke:none;stroke-width:1.09957361"
       id="flowRoot10530">
      <path
         d="m -2.2570312,-214.90733 q 1.04,0 1.75999995,-0.72 0.76,-0.76 0.8,-1.8 v -22.2 q -0.04,-1.04 -0.8,-1.76 -0.71999995,-0.72 -1.75999995,-0.72 h -0.52 v -0.4 h 12.16 l -0.04,0.4 h -0.48 q -1.0400001,0 -1.8,0.72 -0.76,0.72 -0.76,1.76 v 22.2 q 0,1.04 0.76,1.8 0.7599999,0.72 1.8,0.72 h 0.48 l 0.04,0.4 h -12.16 v -0.4 z"
         style="font-style:normal;font-variant:normal;font-weight:bold;font-stretch:normal;font-size:40px;font-family:'Cinzel Decorative';-inkscape-font-specification:'Cinzel Decorative Bold';fill:#3394b3;fill-opacity:1;stroke-width:0.81232876"
         id="path891" />
      <path
         d="m 41.262956,-242.10733 h -0.36 q -0.92,0 -1.84,0.56 -0.92,0.56 -1.52,1.68 l -9.48,20.92 q -1.84,3.96 -1.96,5.24 h -0.36 l -12.12,-26.12 q -0.6,-1.12 -1.52,-1.68 -0.92,-0.6 -1.88,-0.6 H 9.9029559 v -0.4 H 22.622956 v 0.4 h -0.32 q -0.88,0 -1.32,0.56 -0.4,0.52 -0.4,1 0,0.48 0.16,0.96 l 6.8,16.52 7.04,-16.52 q 0.2,-0.52 0.2,-0.96 0,-0.48 -0.44,-1 -0.4,-0.56 -1.28,-0.56 h -0.36 v -0.4 h 8.56 z"
         style="font-style:normal;font-variant:normal;font-weight:bold;font-stretch:normal;font-size:40px;font-family:'Cinzel Decorative';-inkscape-font-specification:'Cinzel Decorative Bold';fill:#3394b3;fill-opacity:1;stroke-width:0.81232876"
         id="path893" />
      <path
         d="m 65.022914,-214.90733 h 0.36 v 0.4 h -12.76 v -0.4 h 0.36 q 0.88,0 1.28,-0.52 0.44,-0.56 0.44,-1.04 0,-0.48 -0.2,-0.96 l -1.96,-4.92 h -9.36 l -2.08,4.92 q -0.2,0.52 -0.2,1 0,0.44 0.4,1 0.44,0.52 1.36,0.52 h 0.32 v 0.4 h -8.56 v -0.4 h 0.36 q 0.92,0 1.84,-0.56 0.92,-0.56 1.52,-1.68 l 9.24,-20.92 q 1.88,-3.96 2,-5.24 h 0.36 l 11.88,26.08 q 0.6,1.16 1.52,1.76 0.92,0.56 1.88,0.56 z m -21.16,-9.12 h 8 l -3.88,-9.84 z"
         style="font-style:normal;font-variant:normal;font-weight:bold;font-stretch:normal;font-size:40px;font-family:'Cinzel Decorative';-inkscape-font-specification:'Cinzel Decorative Bold';fill:#3394b3;fill-opacity:1;stroke-width:0.81232876"
         id="path895" />
    </g>
    <text
       xml:space="preserve"
       style="font-style:normal;font-variant:normal;font-weight:bold;font-stretch:normal;font-size:6.66666651px;line-height:1.25;font-family:sans-serif;-inkscape-font-specification:'sans-serif Bold';letter-spacing:0px;word-spacing:0px;fill:#000000;fill-opacity:1;stroke:none"
       x="234.59109"
       y="-1667.085"
       id="text1003"><tspan
         sodipodi:role="line"
         id="tspan1001"
         x="234.59109"
         y="-1661.1865" /></text>
    <path
       style="display:inline;opacity:1;fill:#414141;fill-opacity:1;stroke:none;stroke-width:1.15977609;stroke-linecap:round;stroke-miterlimit:4;stroke-dasharray:none;stroke-opacity:1"
       d="m 236.31329,-2084.182 -19.55273,0.012 h -1.03125 c -2.06607,-0.019 -4.77192,1.7019 -5.06641,4.916 -0.004,0 -0.005,-0.012 -0.008,-0.012 v 15.5918 5.709 7.7714 h 5.48047 5.70703 5.89844 9.69336 l -0.002,-0.012 c 3.21401,-0.2945 4.93548,-3.0003 4.91602,-5.0664 v -1.0312 -22.7129 c 0.48827,-2.8714 3.03387,-4.4068 5.00391,-4.3887 h 1.03125 v -0.7773 h -6.03493 z"
       id="path1674"
       inkscape:connector-curvature="0" />
    <g
       transform="translate(0.59844668,-25.937883)"
       id="g1728"
       style="fill:#414141;fill-opacity:0.99215686;stroke:none;stroke-opacity:1">
      <path
         inkscape:connector-curvature="0"
         id="path1726"
         d="m 247.7845,-1982.9163 v -0.777 h -1.0317 c -1.96763,0.018 -4.51002,-1.5133 -5.00268,-4.3779 v -22.7237 -1.0317 c 0.0195,-2.0662 -1.702,-4.7718 -4.91601,-5.0664 0,0 6.6e-4,-0.011 0.003,-0.011 h -15.59212 -5.70702 -5.48048 v 7.7721 5.707 15.5921 c 0.004,-3e-4 0.005,-0.011 0.008,-0.011 0.29449,3.2141 3.00034,4.9354 5.06641,4.9161 h 1.03169 v 0 h 19.55237 6.03439 z"
         style="display:inline;opacity:1;fill:#414141;fill-opacity:0.99215686;stroke:none;stroke-width:1.15977609;stroke-linecap:round;stroke-miterlimit:4;stroke-dasharray:none;stroke-opacity:1" />
    </g>
    <text
       xml:space="preserve"
       style="font-style:normal;font-variant:normal;font-weight:bold;font-stretch:normal;font-size:6.66666651px;line-height:1.25;font-family:sans-serif;-inkscape-font-specification:'sans-serif Bold';letter-spacing:0px;word-spacing:0px;fill:#000000;fill-opacity:1;stroke:none"
       x="143.87634"
       y="-784.51147"
       id="text1955"><tspan
         sodipodi:role="line"
         id="tspan1953"
         x="143.87634"
         y="-778.61304" /></text>
    <text
       xml:space="preserve"
       style="font-style:normal;font-variant:normal;font-weight:bold;font-stretch:normal;font-size:6.66666651px;line-height:1.25;font-family:sans-serif;-inkscape-font-specification:'sans-serif Bold';letter-spacing:0px;word-spacing:0px;fill:#000000;fill-opacity:1;stroke:none"
       x="221.32442"
       y="-1235.9686"
       id="text2412"><tspan
         sodipodi:role="line"
         id="tspan2410"
         x="221.32442"
         y="-1230.0702" /></text>
    <text
       xml:space="preserve"
       style="font-style:normal;font-variant:normal;font-weight:bold;font-stretch:normal;font-size:6.66666651px;line-height:1.25;font-family:sans-serif;-inkscape-font-specification:'sans-serif Bold';letter-spacing:0px;word-spacing:0px;fill:#000000;fill-opacity:1;stroke:none"
       x="182.43355"
       y="-1081.1122"
       id="text3849"><tspan
         sodipodi:role="line"
         id="tspan3847"
         x="182.43355"
         y="-1075.2137" /></text>
  </g>
  <g
     inkscape:label="Layer 1"
     inkscape:groupmode="layer"
     id="layer1"
     transform="translate(-92.766242,3124.8115)"
     style="display:inline">
    <text
       xml:space="preserve"
       style="font-style:normal;font-variant:normal;font-weight:bold;font-stretch:normal;font-size:6.66666651px;line-height:1.25;font-family:sans-serif;-inkscape-font-specification:'sans-serif Bold';letter-spacing:0px;word-spacing:0px;fill:#000000;fill-opacity:1;stroke:none"
       x="489.3179"
       y="514.78766"
       id="text3079"><tspan
         sodipodi:role="line"
         id="tspan3077"
         x="489.3179"
         y="520.6861" /></text>
    <flowRoot
       xml:space="preserve"
       id="flowRoot3370"
       style="font-style:normal;font-variant:normal;font-weight:bold;font-stretch:normal;font-size:6.66666651px;line-height:1.25;font-family:sans-serif;-inkscape-font-specification:'sans-serif Bold';letter-spacing:0px;word-spacing:0px;fill:#000000;fill-opacity:1;stroke:none"
       transform="translate(-49.419922,260.03843)"><flowRegion
         id="flowRegion3372"><rect
           id="rect3374"
           width="141.56631"
           height="176.49828"
           x="-49.640137"
           y="-870.22906" /></flowRegion><flowPara
         id="flowPara3376" /></flowRoot>    <flowRoot
       xml:space="preserve"
       id="flowRoot3378"
       style="font-style:normal;font-variant:normal;font-weight:bold;font-stretch:normal;font-size:6.66666651px;line-height:1.25;font-family:sans-serif;-inkscape-font-specification:'sans-serif Bold';letter-spacing:0px;word-spacing:0px;fill:#000000;fill-opacity:1;stroke:none"
       transform="translate(-49.419922,260.03843)"><flowRegion
         id="flowRegion3380"><rect
           id="rect3382"
           width="209.59169"
           height="170.9827"
           x="-80.895042"
           y="-851.84381" /></flowRegion><flowPara
         id="flowPara3384" /></flowRoot>    <flowRoot
       xml:space="preserve"
       id="flowRoot910"
       style="font-style:normal;font-variant:normal;font-weight:bold;font-stretch:normal;font-size:6.66666651px;line-height:1.25;font-family:sans-serif;-inkscape-font-specification:'sans-serif Bold';letter-spacing:0px;word-spacing:0px;fill:#000000;fill-opacity:1;stroke:none"
       transform="translate(31.994425,-219.41745)"><flowRegion
         id="flowRegion912"><rect
           id="rect914"
           width="454.62494"
           height="121.8276"
           x="-121.8276"
           y="13.015608" /></flowRegion><flowPara
         id="flowPara916" /></flowRoot>  </g>
  <g
     inkscape:groupmode="layer"
     id="layer7"
     inkscape:label="fondo000"
     transform="translate(-60.771817,2092.0089)"
     style="display:inline" />
</svg>
