<?xml version="1.0" encoding="UTF-8" standalone="no"?>
<!-- Created with Inkscape (http://www.inkscape.org/) -->

<svg
   xmlns:dc="http://purl.org/dc/elements/1.1/"
   xmlns:cc="http://creativecommons.org/ns#"
   xmlns:rdf="http://www.w3.org/1999/02/22-rdf-syntax-ns#"
   xmlns:svg="http://www.w3.org/2000/svg"
   xmlns="http://www.w3.org/2000/svg"
   xmlns:sodipodi="http://sodipodi.sourceforge.net/DTD/sodipodi-0.dtd"
   xmlns:inkscape="http://www.inkscape.org/namespaces/inkscape"
   width="99.549858"
   height="91.776657"
   viewBox="0 0 99.549859 91.776657"
   version="1.1"
   id="svg1730"
   inkscape:version="0.92.5 (2060ec1f9f, 2020-04-08)"
   sodipodi:docname="icono_ipvvenezuela.svg"
   inkscape:export-filename="/home/eduardo/diseños de ipvvenezuela.com/LOGOipvvenezuela.png"
   inkscape:export-xdpi="96"
   inkscape:export-ydpi="96">
  <defs
     id="defs1724" />
  <sodipodi:namedview
     id="base"
     pagecolor="#ffffff"
     bordercolor="#666666"
     borderopacity="1.0"
     inkscape:pageopacity="0.0"
     inkscape:pageshadow="2"
     inkscape:zoom="1.3461646"
     inkscape:cx="279.29092"
     inkscape:cy="-7.8742515"
     inkscape:document-units="px"
     inkscape:current-layer="layer1"
     showgrid="false"
     units="px"
     inkscape:showpageshadow="false"
     inkscape:window-width="1366"
     inkscape:window-height="704"
     inkscape:window-x="0"
     inkscape:window-y="27"
     inkscape:window-maximized="1"
     showguides="false"
     inkscape:guide-bbox="true"
     inkscape:snap-bbox="true"
     inkscape:bbox-nodes="true"
     inkscape:snap-bbox-edge-midpoints="true"
     inkscape:snap-bbox-midpoints="true"
     showborder="true"
     inkscape:snap-global="false"
     fit-margin-top="0"
     fit-margin-left="-0.5"
     fit-margin-right="0"
     fit-margin-bottom="0"
     inkscape:pagecheckerboard="false">
    <sodipodi:guide
       position="415.49501,-387.68149"
       orientation="0,1"
       id="guide2628"
       inkscape:locked="false" />
    <sodipodi:guide
       position="410.84175,-470.59727"
       orientation="0,1"
       id="guide2758"
       inkscape:locked="false" />
    <sodipodi:guide
       position="-37.773768,-38.921404"
       orientation="0,1"
       id="guide3256"
       inkscape:locked="false" />
    <sodipodi:guide
       position="-37.773768,-46.130004"
       orientation="0,1"
       id="guide3258"
       inkscape:locked="false" />
    <sodipodi:guide
       position="-37.773768,-38.231954"
       orientation="1,0"
       id="guide3260"
       inkscape:locked="false" />
    <sodipodi:guide
       position="274.56327,58.754946"
       orientation="0,1"
       id="guide3330"
       inkscape:locked="false" />
    <sodipodi:guide
       position="219.62443,-135.66675"
       orientation="-30.1445,13.40659"
       id="guide3426"
       inkscape:locked="false" />
  </sodipodi:namedview>
  <metadata
     id="metadata1727">
    <rdf:RDF>
      <cc:Work
         rdf:about="">
        <dc:format>image/svg+xml</dc:format>
        <dc:type
           rdf:resource="http://purl.org/dc/dcmitype/StillImage" />
        <dc:title></dc:title>
      </cc:Work>
    </rdf:RDF>
  </metadata>
  <g
     inkscape:label="Layer 1"
     inkscape:groupmode="layer"
     id="layer1"
     transform="translate(-31.994425,219.41745)">
    <text
       xml:space="preserve"
       style="font-style:normal;font-variant:normal;font-weight:bold;font-stretch:normal;font-size:6.66666651px;line-height:1.25;font-family:sans-serif;-inkscape-font-specification:'sans-serif Bold';letter-spacing:0px;word-spacing:0px;fill:#000000;fill-opacity:1;stroke:none"
       x="489.3179"
       y="514.78766"
       id="text3079"><tspan
         sodipodi:role="line"
         id="tspan3077"
         x="489.3179"
         y="520.6861" /></text>
    <flowRoot
       xml:space="preserve"
       id="flowRoot3370"
       style="font-style:normal;font-variant:normal;font-weight:bold;font-stretch:normal;font-size:6.66666651px;line-height:1.25;font-family:sans-serif;-inkscape-font-specification:'sans-serif Bold';letter-spacing:0px;word-spacing:0px;fill:#000000;fill-opacity:1;stroke:none"
       transform="translate(-49.419922,260.03843)"><flowRegion
         id="flowRegion3372"><rect
           id="rect3374"
           width="141.56631"
           height="176.49828"
           x="-49.640137"
           y="-870.22906" /></flowRegion><flowPara
         id="flowPara3376" /></flowRoot>    <flowRoot
       xml:space="preserve"
       id="flowRoot3378"
       style="font-style:normal;font-variant:normal;font-weight:bold;font-stretch:normal;font-size:6.66666651px;line-height:1.25;font-family:sans-serif;-inkscape-font-specification:'sans-serif Bold';letter-spacing:0px;word-spacing:0px;fill:#000000;fill-opacity:1;stroke:none"
       transform="translate(-49.419922,260.03843)"><flowRegion
         id="flowRegion3380"><rect
           id="rect3382"
           width="209.59169"
           height="170.9827"
           x="-80.895042"
           y="-851.84381" /></flowRegion><flowPara
         id="flowPara3384" /></flowRoot>    <path
       style="opacity:1;fill:#414141;fill-opacity:1;stroke:none;stroke-width:1;stroke-linecap:round;stroke-miterlimit:4;stroke-dasharray:none;stroke-opacity:1"
       d="m 96.641908,-210.76591 v 0.002 h -1.138672 c -2.280335,-0.0215 -5.266752,1.87848 -5.591797,5.42578 -0.0034,0 -0.006,-0.004 -0.0098,-0.004 v 17.20892 6.29883 8.57813 h 6.048828 6.298833 6.50976 10.69922 c 0,-0.003 -0.002,-0.006 -0.002,-0.01 3.54731,-0.32504 5.44727,-3.31146 5.42578,-5.5918 v -1.13864 -25.06835 c 0.53892,-3.16918 3.34912,-4.86378 5.52344,-4.84375 h 1.13867 v -0.85742 h -6.66211 -6.66016 z m -6.740234,45.61326 v 8.58204 6.29688 6.51172 10.69726 c 0.0034,0 0.0059,-0.002 0.0098,-0.002 0.325044,3.54731 3.311461,5.44728 5.591797,5.42578 h 1.138667 21.580082 6.66015 6.66211 v -0.85546 h -1.13867 c -2.17432,0.02 -4.98451,-1.67459 -5.52344,-4.84375 v -25.07223 h -0.01 v -1.13867 c 0.0215,-2.28034 -1.87847,-5.26675 -5.42578,-5.5918 0,-0.003 0.002,-0.006 0.002,-0.01 h -17.20903 -6.298824 z"
       id="path1481"
       inkscape:connector-curvature="0" />
    <path
       inkscape:connector-curvature="0"
       id="path1507"
       d="m 31.494425,-219.41734 v 1.05518 h 1.401256 c 2.672493,-0.0246 6.125599,2.05543 6.794773,5.9463 v 30.8637 1.40125 c -0.02641,2.8062 2.311662,6.48131 6.677,6.88131 0,0.004 -0.0021,0.007 -0.0024,0.0123 h 21.177483 7.751377 7.443725 v -10.5563 -7.75138 -21.17747 c -0.0047,4.9e-4 -0.0078,0.005 -0.01206,0.005 -0.400005,-4.36533 -4.075107,-6.70341 -6.881301,-6.677 h -1.401257 v -0.003 H 47.886446 39.690415 Z"
       style="opacity:1;fill:#3394b3;fill-opacity:1;stroke:none;stroke-width:1;stroke-linecap:round;stroke-miterlimit:4;stroke-dasharray:none;stroke-opacity:1" />
    <path
       style="opacity:1;fill:#414141;fill-opacity:1;stroke:none;stroke-width:1;stroke-linecap:round;stroke-miterlimit:4;stroke-dasharray:none;stroke-opacity:1"
       d="m 41.096986,-127.84924 v -0.85743 h 1.138672 c 2.171688,0.02 4.977709,-1.67026 5.521484,-4.83203 v -25.08008 -1.13867 c -0.02146,-2.28034 1.878475,-5.26676 5.425782,-5.5918 0,-0.003 -0.0016,-0.006 -0.002,-0.01 h 17.208985 6.298828 6.048828 v 8.57814 6.29883 17.20898 c -0.0038,-3.9e-4 -0.0063,-0.004 -0.0098,-0.004 -0.325047,3.5473 -3.311462,5.44723 -5.591797,5.42578 h -1.138672 v 0.002 H 54.417218 47.757061 Z"
       id="path1509"
       inkscape:connector-curvature="0" />
  </g>
</svg>
