<?xml version="1.0" encoding="UTF-8" standalone="no"?>
<!-- Created with Inkscape (http://www.inkscape.org/) -->

<svg
   xmlns:dc="http://purl.org/dc/elements/1.1/"
   xmlns:cc="http://creativecommons.org/ns#"
   xmlns:rdf="http://www.w3.org/1999/02/22-rdf-syntax-ns#"
   xmlns:svg="http://www.w3.org/2000/svg"
   xmlns="http://www.w3.org/2000/svg"
   xmlns:sodipodi="http://sodipodi.sourceforge.net/DTD/sodipodi-0.dtd"
   xmlns:inkscape="http://www.inkscape.org/namespaces/inkscape"
   width="263.65045"
   height="59.144978"
   viewBox="0 0 263.65045 59.14498"
   version="1.1"
   id="svg8"
   inkscape:version="0.92.5 (2060ec1f9f, 2020-04-08)"
   sodipodi:docname="logo_icbpvvzla_header.svg">
  <defs
     id="defs2" />
  <sodipodi:namedview
     id="base"
     pagecolor="#ffffff"
     bordercolor="#666666"
     borderopacity="1.0"
     inkscape:pageopacity="0.0"
     inkscape:pageshadow="2"
     inkscape:zoom="2.8"
     inkscape:cx="139.6273"
     inkscape:cy="17.012619"
     inkscape:document-units="px"
     inkscape:current-layer="layer1"
     showgrid="false"
     units="px"
     inkscape:showpageshadow="false"
     inkscape:pagecheckerboard="false"
     inkscape:snap-bbox="false"
     inkscape:bbox-nodes="true"
     inkscape:snap-bbox-edge-midpoints="true"
     inkscape:snap-bbox-midpoints="true"
     inkscape:window-width="1366"
     inkscape:window-height="704"
     inkscape:window-x="0"
     inkscape:window-y="27"
     inkscape:window-maximized="1"
     showborder="false"
     fit-margin-top="0"
     fit-margin-left="0"
     fit-margin-right="0"
     fit-margin-bottom="0" />
  <metadata
     id="metadata5">
    <rdf:RDF>
      <cc:Work
         rdf:about="">
        <dc:format>image/svg+xml</dc:format>
        <dc:type
           rdf:resource="http://purl.org/dc/dcmitype/StillImage" />
        <dc:title></dc:title>
      </cc:Work>
    </rdf:RDF>
  </metadata>
  <g
     inkscape:label="Layer 1"
     inkscape:groupmode="layer"
     id="layer1"
     transform="translate(-36.349575,-1051.6887)">
    <flowRoot
       xml:space="preserve"
       id="flowRoot815"
       style="font-style:normal;font-variant:normal;font-weight:bold;font-stretch:normal;font-size:6.66666651px;line-height:1.25;font-family:Inspiration;-inkscape-font-specification:'Inspiration Bold';letter-spacing:0px;word-spacing:0px;fill:#000000;fill-opacity:1;stroke:none"
       transform="translate(0,1047.5197)"><flowRegion
         id="flowRegion817"
         style="font-style:normal;font-variant:normal;font-weight:bold;font-stretch:normal;font-family:Inspiration;-inkscape-font-specification:'Inspiration Bold'"><rect
           id="rect819"
           width="299.00516"
           height="73.741135"
           x="0.50507629"
           y="0.75378788"
           style="font-style:normal;font-variant:normal;font-weight:bold;font-stretch:normal;font-family:Inspiration;-inkscape-font-specification:'Inspiration Bold'" /></flowRegion><flowPara
         id="flowPara821" /></flowRoot>    <g
       aria-label="I.C.B.PalabraViva"
       transform="matrix(1.0714321,0,0,1.071467,-1.0562813,1047.2647)"
       style="font-style:normal;font-variant:normal;font-weight:bold;font-stretch:normal;font-size:53.33333206px;line-height:1.25;font-family:sans-serif;-inkscape-font-specification:'sans-serif Bold';letter-spacing:0px;word-spacing:0px;fill:#000000;fill-opacity:1;stroke:none"
       id="flowRoot823">
      <path
         d="m 134.53213,59.328879 q -2.61333,0 -5.01333,-2.293333 -2.34667,-2.293334 -3.84,-6.666667 -1.49333,-4.32 -1.49333,-10.453333 0,-0.746667 0,-1.546667 0.0533,-0.8 0.10666,-1.653333 -0.53333,0.05333 -1.06666,0.05333 -0.48,0 -0.90667,0 -3.09333,0 -4.53333,-0.8 -1.38667,-0.8 -1.38667,-2.08 0,-1.28 1.22667,-2.826666 1.28,-1.546667 3.52,-3.146667 2.24,-1.6 5.17333,-2.88 1.22667,-4.426666 3.2,-9.333333 1.97333,-4.906666 4.90667,-10.2399996 0.37333,-0.6933333 1.12,-0.6933333 0.48,0 0.85333,0.32 0.37333,0.32 0.37333,0.8533333 0,0.2666667 -0.16,0.6933333 -0.42666,0.8533333 -0.85333,1.76 -0.42667,0.8533333 -0.85333,1.7066663 0.8,-0.1599997 1.22666,-0.1599997 0.42667,0 1.01334,-0.053333 0.58666,-0.053333 1.81333,-0.2133333 1.70667,-0.2666667 3.2,-0.4266667 1.54667,-0.16 2.88,-0.16 5.06667,0 7.46667,1.7599997 2.4,1.76 2.4,4.48 0,3.253333 -3.14667,7.146666 -2.61333,3.2 -6.56,6.186667 -3.89333,2.986666 -8.8,5.12 -4.85333,2.08 -10.34667,2.773333 -0.21333,1.546667 -0.32,2.986667 -0.10666,1.44 -0.10666,2.72 0,4.639999 1.06666,7.626666 1.12,3.04 2.72,4.746667 1.65334,1.706666 3.25334,2.4 1.65333,0.693333 2.66666,0.693333 0.8,0 1.06667,-0.266667 0.21333,-0.266666 0.48,-0.266666 0.58667,0 0.58667,0.799999 0,0.64 -0.58667,0.853334 -1.12,0.48 -2.34667,0.48 z m -8.32,-23.733333 q 5.6,-1.12 10.13334,-3.413333 4.58666,-2.293333 8.10666,-5.28 3.52,-2.986667 5.92,-6.24 1.38667,-1.813333 1.97334,-3.253333 0.58666,-1.493333 0.58666,-2.613333 0,-1.813334 -1.28,-2.88 -1.22666,-1.12 -3.25333,-1.6 -2.02667,-0.4800004 -4.37333,-0.4800004 -2.45334,0 -4.85334,0.4266664 -2.4,0.426667 -4.26666,1.12 -0.37334,0.16 -0.64,0.05333 -1.54667,3.413333 -2.82667,6.559999 -1.22667,3.093334 -2.18667,5.92 2.29334,-0.746666 4.8,-1.28 2.50667,-0.533333 5.17334,-0.64 h 0.21333 q 0.53333,0 0.53333,0.213334 0,0.16 -0.53333,0.373333 -0.48,0.213333 -1.65333,0.266667 -2.45334,0.106666 -4.64,0.64 -2.18667,0.48 -4.16,1.226666 -1.01334,3.093334 -1.70667,5.813333 -0.64,2.72 -1.06667,5.066667 z m -3.68,0.426667 q 0.42667,0 0.85334,0 0.48,-0.05333 0.96,-0.106667 0.21333,-2.293333 0.64,-4.746667 0.42666,-2.506666 1.12,-5.173333 -3.41334,1.76 -5.44,3.946667 -2.02667,2.133333 -2.02667,3.786666 0,1.013334 0.96,1.653334 0.96,0.64 2.93333,0.64 z"
         style="font-style:normal;font-variant:normal;font-weight:bold;font-stretch:normal;font-size:53.33333206px;font-family:Inspiration;-inkscape-font-specification:'Inspiration Bold'"
         id="path881"
         inkscape:connector-curvature="0" />
      <path
         d="m 146.26539,47.008879 q -0.96,0 -1.38667,-0.8 -0.42667,-0.853333 -0.42667,-1.973333 0,-1.44 0.48,-3.36 0.53334,-1.92 1.38667,-3.946667 0.85333,-2.08 1.92,-3.786666 1.12,-1.76 2.34667,-2.826667 1.22666,-1.12 2.4,-1.12 1.06666,0 1.81333,0.96 0.8,0.906667 0.8,2.08 0,0.693333 -0.21333,1.173333 -0.21334,0.426667 -0.48,0.426667 -0.21334,0 -0.37334,-0.32 -0.53333,-1.226667 -1.17333,-1.76 -0.58667,-0.533333 -1.22667,-0.533333 -1.06666,0 -2.13333,1.226666 -1.01333,1.173334 -1.65333,2.72 -0.53334,1.173334 -1.01334,2.826667 -0.42666,1.6 -0.74666,3.2 -0.26667,1.546667 -0.26667,2.56 0,1.813333 0.85333,1.813333 1.06667,0 2.72,-2.346666 1.22667,-1.706667 2.18667,-3.946667 1.01333,-2.24 1.70667,-3.893333 0.26666,-0.533334 0.58666,-0.693334 0.32,-0.16 0.58667,-0.16 0.64,0 0.8,0.533334 0.21333,0.533333 0.21333,0.906666 0,1.386667 -0.26666,2.506667 -0.26667,1.066667 -0.26667,2.613333 0,1.12 0.16,2.08 0.21333,0.906667 0.69333,0.906667 0.58667,0 1.49334,-1.493333 0.21333,-0.426667 0.64,-0.426667 0.48,0 0.48,0.48 0,0.693333 -0.96,1.493333 -0.96,0.746667 -1.92,0.746667 -1.28,0 -1.81334,-1.066667 -0.90666,-1.76 -0.90666,-3.146666 0,-1.44 -0.0533,-1.973334 -0.26666,0.64 -1.01333,2.026667 -0.74667,1.333333 -1.76,2.826667 -1.01333,1.439999 -2.13333,2.453333 -1.12,1.013333 -2.08,1.013333 z"
         style="font-style:normal;font-variant:normal;font-weight:bold;font-stretch:normal;font-size:53.33333206px;font-family:Inspiration;-inkscape-font-specification:'Inspiration Bold'"
         id="path883"
         inkscape:connector-curvature="0" />
      <path
         d="m 166.58532,55.915546 q -0.69334,0 -1.33334,-0.533334 -0.58666,-0.533333 -1.01333,-1.066666 -1.70667,-1.973334 -2.88,-5.226667 -1.12,-3.253333 -1.70667,-7.146666 -0.58666,-3.946667 -0.58666,-8 0,-3.786667 0.48,-7.36 0.53333,-3.573333 1.6,-6.506667 1.06666,-2.933333 2.66666,-4.693333 2.08,-2.346666 4,-2.346666 1.17334,0 1.86667,1.066666 0.74667,1.013334 0.74667,3.253333 0,2.133334 -0.85334,5.44 -0.8,3.253334 -2.77333,7.786667 -0.69333,1.493333 -1.49333,2.986666 -0.74667,1.493334 -1.6,3.146667 -0.32,0.64 -0.53334,0.64 -0.10666,0 -0.10666,-0.213333 0,-0.426667 0.37333,-1.12 4.85333,-9.12 4.85333,-18.133333 0,-3.573333 -1.49333,-3.573333 -1.06667,0 -2.50667,2.079999 -1.97333,2.933334 -2.72,6.986667 -0.74666,4 -0.74666,8.106666 0,3.093334 0.26666,6.026667 0.26667,2.88 0.64,5.226667 0.16,1.013333 0.48,2.719999 0.32,1.706667 0.85334,3.573334 0.53333,1.92 1.17333,3.466666 0.69333,1.6 1.49333,2.293334 0.21334,0.16 0.42667,0.32 0.26667,0.213333 0.58667,0.266666 0.48,0 0.48,0.266667 0,0.266667 -0.64,0.266667 z"
         style="font-style:normal;font-variant:normal;font-weight:bold;font-stretch:normal;font-size:53.33333206px;font-family:Inspiration;-inkscape-font-specification:'Inspiration Bold'"
         id="path885"
         inkscape:connector-curvature="0" />
      <path
         d="m 169.25194,47.008879 q -0.96,0 -1.38666,-0.8 -0.42667,-0.853333 -0.42667,-1.973333 0,-1.44 0.48,-3.36 0.53333,-1.92 1.38667,-3.946667 0.85333,-2.08 1.92,-3.786666 1.12,-1.76 2.34666,-2.826667 1.22667,-1.12 2.4,-1.12 1.06667,0 1.81334,0.96 0.8,0.906667 0.8,2.08 0,0.693333 -0.21334,1.173333 -0.21333,0.426667 -0.48,0.426667 -0.21333,0 -0.37333,-0.32 -0.53333,-1.226667 -1.17333,-1.76 -0.58667,-0.533333 -1.22667,-0.533333 -1.06667,0 -2.13333,1.226666 -1.01334,1.173334 -1.65334,2.72 -0.53333,1.173334 -1.01333,2.826667 -0.42667,1.6 -0.74667,3.2 -0.26666,1.546667 -0.26666,2.56 0,1.813333 0.85333,1.813333 1.06667,0 2.72,-2.346666 1.22667,-1.706667 2.18667,-3.946667 1.01333,-2.24 1.70666,-3.893333 0.26667,-0.533334 0.58667,-0.693334 0.32,-0.16 0.58667,-0.16 0.64,0 0.8,0.533334 0.21333,0.533333 0.21333,0.906666 0,1.386667 -0.26667,2.506667 -0.26666,1.066667 -0.26666,2.613333 0,1.12 0.16,2.08 0.21333,0.906667 0.69333,0.906667 0.58667,0 1.49333,-1.493333 0.21334,-0.426667 0.64,-0.426667 0.48,0 0.48,0.48 0,0.693333 -0.96,1.493333 -0.96,0.746667 -1.92,0.746667 -1.28,0 -1.81333,-1.066667 -0.90667,-1.76 -0.90667,-3.146666 0,-1.44 -0.0533,-1.973334 -0.26667,0.64 -1.01333,2.026667 -0.74667,1.333333 -1.76,2.826667 -1.01334,1.439999 -2.13334,2.453333 -1.12,1.013333 -2.08,1.013333 z"
         style="font-style:normal;font-variant:normal;font-weight:bold;font-stretch:normal;font-size:53.33333206px;font-family:Inspiration;-inkscape-font-specification:'Inspiration Bold'"
         id="path887"
         inkscape:connector-curvature="0" />
      <path
         d="m 184.66521,52.128879 q -0.32,0 -0.53334,-0.533333 -0.53333,-1.12 -0.8,-3.36 -0.26666,-2.186667 -0.26666,-4.96 0,-3.253333 0.32,-6.773333 -0.69334,0.853333 -1.33334,1.706666 -0.58666,0.8 -0.96,1.173334 -0.21333,0.213333 -0.42666,0.213333 -0.42667,0 -0.42667,-0.586667 0,-0.533333 0.58667,-1.28 0.64,-0.746666 1.44,-1.493333 0.8,-0.8 1.28,-1.226667 0.37333,-3.946666 1.01333,-7.626666 0.64,-3.68 1.44,-6.4 0.85333,-2.773333 1.81333,-3.84 0.48,-0.48 1.12,-0.48 0.58667,0 0.96,0.373333 0.37334,0.32 0.37334,0.906667 0,0.693333 -0.64,1.973333 -0.58667,1.226667 -1.38667,2.826667 -0.8,1.546667 -1.54667,4.533333 -0.74666,2.986667 -1.33333,6.453333 1.6,-0.853333 3.41333,-0.853333 2.13334,0 3.09334,1.333333 1.01333,1.28 1.01333,3.146667 0,1.706667 -0.69333,3.573333 -0.64,1.866667 -1.6,3.466667 -0.96,1.6 -1.86667,2.56 -0.53333,0.533333 -1.12,1.12 -0.58667,0.586666 -1.49333,0.586666 -0.69334,0 -1.01334,-0.533333 -0.32,-0.533333 -0.32,-1.173333 0,-0.48 0.37334,-1.493334 0.37333,-1.013333 0.90666,-2.186666 0.58667,-1.173333 1.17334,-2.24 0.58666,-1.066667 1.01333,-1.706667 0.21333,-0.373333 0.58667,-0.906666 0.42666,-0.586667 0.64,-0.586667 0.10666,0 0.10666,0.16 0,0.213333 -0.26666,0.746667 -0.26667,0.48 -0.53334,0.906666 -0.53333,1.013334 -1.22666,2.453334 -0.69334,1.44 -1.22667,2.879999 -0.53333,1.386667 -0.53333,2.293334 0,0.426666 0.26666,0.426666 0.26667,0 0.64,-0.373333 0.42667,-0.426667 0.85334,-0.906667 0.42666,-0.533333 0.58666,-0.746666 1.22667,-1.706667 1.97334,-3.946667 0.74666,-2.24 0.74666,-4.16 0,-1.653333 -0.58666,-2.72 -0.58667,-1.12 -1.97334,-1.12 -1.28,0 -3.14666,1.173334 -0.42667,2.826666 -0.69334,5.653333 -0.26666,2.773333 -0.26666,5.12 0,1.493333 0.10666,2.666666 0.16,1.173334 0.42667,1.92 0.16,0.373334 0.21333,0.64 0.0533,0.32 0.0533,0.586667 0,0.64 -0.32,0.64 z"
         style="font-style:normal;font-variant:normal;font-weight:bold;font-stretch:normal;font-size:53.33333206px;font-family:Inspiration;-inkscape-font-specification:'Inspiration Bold'"
         id="path889"
         inkscape:connector-curvature="0" />
      <path
         d="m 201.35849,50.102212 q -1.70666,0 -2.61333,-1.6 -0.90667,-1.546666 -0.90667,-3.413333 0,-1.76 0.58667,-3.68 0.58667,-1.92 1.44,-3.786666 0.90667,-1.866667 1.86667,-3.413334 -0.96,0.373334 -1.81334,0.373334 -0.42666,0 -0.74666,-0.106667 -0.32,-0.106667 -0.53334,-0.16 -0.26666,0.64 -0.96,2.133333 -0.64,1.493334 -1.38666,3.146667 -0.69334,1.6 -1.22667,2.72 -0.85333,1.813333 -1.49333,1.813333 -0.32,0 -0.32,-0.426666 0,-0.32 0.26666,-0.853334 1.22667,-2.293333 2.29334,-4.533333 1.12,-2.24 2.02666,-4.32 -0.10666,-0.266667 -0.21333,-0.693333 -0.10667,-0.48 -0.10667,-1.013334 0,-0.586666 0.10667,-1.226666 0.16,-0.693334 0.42667,-1.333333 0.16,-0.373334 0.58666,-1.066667 0.42667,-0.746667 0.96,-1.333333 0.53334,-0.64 1.01334,-0.64 0.90666,0 0.90666,0.96 0,0.906666 -0.58666,2.08 -0.53334,1.173333 -1.12,2.186666 -0.58667,0.96 -0.58667,1.44 0,0.426667 0.42667,0.426667 0.58666,0 1.44,-0.586667 0.90666,-0.64 1.44,-1.173333 0.26666,-0.266667 0.85333,-0.8 0.58667,-0.586667 1.12,-0.586667 0.53333,0 0.69333,0.32 0.21334,0.32 0.21334,0.746667 0,0.48 -0.42667,1.226666 -0.42667,0.693334 -1.01333,1.386667 -0.53334,0.693333 -0.90667,1.173333 -0.74667,1.12 -1.70667,2.826667 -0.96,1.706667 -1.65333,3.68 -0.69333,1.92 -0.69333,3.68 0,1.173333 0.58666,2.453333 0.58667,1.28 1.6,1.28 0.90667,0 1.92,-0.96 1.06667,-0.96 1.97334,-2.293333 0.96,-1.333334 1.65333,-2.56 0.74667,-1.226667 1.01333,-1.706667 0.10667,-0.266666 0.37334,-0.64 0.26666,-0.426666 0.64,-0.426666 0.32,0 0.32,0.32 0,0.266666 -0.16,0.64 -0.10667,0.32 -0.21334,0.586666 -0.48,1.12 -1.17333,2.346667 -0.69333,1.226666 -0.96,1.653333 -0.74667,1.226667 -2.24,2.453333 -1.44,1.28 -2.98667,1.28 z"
         style="font-style:normal;font-variant:normal;font-weight:bold;font-stretch:normal;font-size:53.33333206px;font-family:Inspiration;-inkscape-font-specification:'Inspiration Bold'"
         id="path891"
         inkscape:connector-curvature="0" />
      <path
         d="m 209.83849,47.008879 q -0.96,0 -1.38666,-0.8 -0.42667,-0.853333 -0.42667,-1.973333 0,-1.44 0.48,-3.36 0.53333,-1.92 1.38667,-3.946667 0.85333,-2.08 1.92,-3.786666 1.12,-1.76 2.34666,-2.826667 1.22667,-1.12 2.4,-1.12 1.06667,0 1.81334,0.96 0.8,0.906667 0.8,2.08 0,0.693333 -0.21334,1.173333 -0.21333,0.426667 -0.48,0.426667 -0.21333,0 -0.37333,-0.32 -0.53333,-1.226667 -1.17333,-1.76 -0.58667,-0.533333 -1.22667,-0.533333 -1.06667,0 -2.13333,1.226666 -1.01334,1.173334 -1.65334,2.72 -0.53333,1.173334 -1.01333,2.826667 -0.42667,1.6 -0.74667,3.2 -0.26666,1.546667 -0.26666,2.56 0,1.813333 0.85333,1.813333 1.06667,0 2.72,-2.346666 1.22667,-1.706667 2.18667,-3.946667 1.01333,-2.24 1.70666,-3.893333 0.26667,-0.533334 0.58667,-0.693334 0.32,-0.16 0.58667,-0.16 0.64,0 0.8,0.533334 0.21333,0.533333 0.21333,0.906666 0,1.386667 -0.26667,2.506667 -0.26666,1.066667 -0.26666,2.613333 0,1.12 0.16,2.08 0.21333,0.906667 0.69333,0.906667 0.58667,0 1.49333,-1.493333 0.21334,-0.426667 0.64,-0.426667 0.48,0 0.48,0.48 0,0.693333 -0.96,1.493333 -0.96,0.746667 -1.92,0.746667 -1.28,0 -1.81333,-1.066667 -0.90667,-1.76 -0.90667,-3.146666 0,-1.44 -0.0533,-1.973334 -0.26667,0.64 -1.01333,2.026667 -0.74667,1.333333 -1.76,2.826667 -1.01334,1.439999 -2.13334,2.453333 -1.12,1.013333 -2.08,1.013333 z"
         style="font-style:normal;font-variant:normal;font-weight:bold;font-stretch:normal;font-size:53.33333206px;font-family:Inspiration;-inkscape-font-specification:'Inspiration Bold'"
         id="path893"
         inkscape:connector-curvature="0" />
      <path
         d="m 236.18509,48.875546 q -0.85333,0 -0.85333,-1.44 -0.0533,-1.333334 0.0533,-4.213333 0.10667,-2.88 0.10667,-6.453334 0,-2.88 -0.16,-5.92 -0.10667,-3.093333 -0.53334,-5.919999 -0.37333,-2.88 -1.12,-5.12 -0.74666,-2.24 -1.97333,-3.573334 -1.17333,-1.333333 -2.88,-1.333333 -1.81333,0 -3.2,0.906667 -1.33333,0.853333 -2.50667,2.133333 -1.12,1.28 -2.29333,2.506667 -0.32,0.373333 -0.42667,0.213333 -0.16,-0.16 -0.10666,-0.373333 0.48,-1.066667 1.6,-2.4 1.17333,-1.333334 2.61333,-2.506667 1.49333,-1.226666 3.04,-1.973333 1.6,-0.8 2.88,-0.8 2.02667,0 3.46667,1.866667 1.44,1.866666 2.29333,5.013333 0.90666,3.146666 1.28,7.093333 0.42666,3.893333 0.42666,8.053333 0,6.24 -0.74666,11.733333 0.96,-3.253333 2.29333,-7.2 1.33333,-4 3.09333,-8.266666 1.76,-4.32 3.89334,-8.48 2.18666,-4.16 4.74666,-7.733333 2.61334,-3.626667 5.65334,-6.24 3.09333,-2.6666666 6.56,-3.8933332 1.38666,-0.4266667 2.50666,-0.4266667 1.86667,0 3.25334,1.0133333 1.44,0.96 1.76,2.9333333 v 0.1066667 q 0,0.4799999 -0.21334,0.9599999 -0.16,0.48 -0.37333,0.48 -0.32,0 -0.32,-1.12 0,-1.2799999 -0.69333,-2.1866666 -0.69334,-0.9599999 -2.29334,-0.9599999 -0.96,0 -2.34666,0.4799999 -4.05334,1.3866667 -7.89334,5.1733333 -3.78666,3.786667 -7.2,9.333333 -3.41333,5.546667 -6.34666,12.373333 -2.93334,6.773333 -5.22667,14.293333 -0.21333,0.746667 -0.8,1.28 -0.53333,0.586667 -1.01333,0.586667 z"
         style="font-style:normal;font-variant:normal;font-weight:bold;font-stretch:normal;font-size:53.33333206px;font-family:Inspiration;-inkscape-font-specification:'Inspiration Bold'"
         id="path895"
         inkscape:connector-curvature="0" />
      <path
         d="m 251.27832,29.622213 q -0.48,0 -0.69333,-0.48 -0.16,-0.533333 -0.16,-0.746667 0,-0.853333 0.48,-1.6 0.53333,-0.8 1.17333,-0.853333 h 0.16 q 0.64,0 0.85334,0.32 0.26666,0.266667 0.26666,0.693333 0,0.8 -0.69333,1.76 -0.69333,0.906667 -1.38667,0.906667 z m -2.72,19.093333 q -1.81333,0 -2.45333,-1.386667 -0.64,-1.386667 -0.64,-3.2 0,-1.813333 0.37333,-3.786666 0.42667,-2.026667 0.90667,-3.68 0.53333,-1.653334 0.8,-2.346667 0.58667,-1.226667 1.17333,-2.08 0.58667,-0.906667 1.28,-0.906667 0.48,0 0.69334,0.373334 0.26666,0.32 0.26666,0.853333 0,1.066667 -0.58666,2.186667 -0.58667,1.066666 -1.06667,2.026666 -1.06667,2.186667 -1.70667,3.893334 -0.58666,1.706666 -0.58666,4.266666 0,1.653333 0.32,2.4 0.37333,0.746667 1.01333,0.746667 0.85333,0 1.97333,-0.96 1.12,-1.013334 2.29334,-2.666667 1.17333,-1.653333 2.08,-3.573333 0.58666,-1.226667 0.90666,-1.226667 0.21334,0 0.21334,0.426667 0,0.586667 -0.48,1.706667 -0.42667,1.066666 -1.06667,2.186666 -0.58667,1.12 -1.12,1.76 -0.90667,1.173333 -2.08,2.08 -1.17333,0.906667 -2.50667,0.906667 z"
         style="font-style:normal;font-variant:normal;font-weight:bold;font-stretch:normal;font-size:53.33333206px;font-family:Inspiration;-inkscape-font-specification:'Inspiration Bold'"
         id="path897"
         inkscape:connector-curvature="0" />
      <path
         d="m 259.06497,51.008879 q -0.32,0 -0.64,-0.373333 -0.26667,-0.373334 -0.37334,-1.173334 -0.0533,-0.213333 -0.0533,-0.64 0,-0.373333 0,-0.906666 0,-1.066667 0,-2.133334 0.0533,-1.12 0.0533,-1.493333 0,-2.24 -0.21333,-4.533333 -0.21333,-2.293333 -0.85333,-3.84 -0.64,-1.546667 -2.02667,-1.546667 -0.85333,0 -1.6,0.64 -0.69333,0.586667 -1.17333,1.226667 -0.53334,0.64 -0.74667,0.64 -0.21333,0 -0.21333,-0.213333 0,-0.266667 0.48,-0.853334 0.48,-0.64 0.69333,-0.853333 0.8,-0.8 1.76,-1.44 1.01333,-0.64 1.86667,-0.64 1.33333,0 2.08,1.493333 0.74666,1.44 1.06666,3.68 0.32,2.186667 0.32,4.426667 0,1.12 -0.0533,2.186666 -0.0533,1.013334 -0.16,1.866667 0.48,-1.333333 1.22667,-3.146666 0.74666,-1.866667 1.70666,-3.786667 1.01334,-1.973333 2.13334,-3.68 1.12,-1.706667 2.4,-2.826667 0.74666,-0.64 1.12,-0.64 0.32,0 0.32,0.32 0,0.533334 -0.90667,1.333334 -1.86667,1.653333 -3.14667,3.786666 -1.28,2.133334 -2.08,4.373334 -0.74666,2.239999 -1.12,4.213333 -0.37333,1.973333 -0.48,3.253333 -0.0533,0.373333 -0.48,0.8 -0.42666,0.48 -0.90666,0.48 z"
         style="font-style:normal;font-variant:normal;font-weight:bold;font-stretch:normal;font-size:53.33333206px;font-family:Inspiration;-inkscape-font-specification:'Inspiration Bold'"
         id="path899"
         inkscape:connector-curvature="0" />
      <path
         d="m 268.34495,47.008879 q -0.96,0 -1.38667,-0.8 -0.42667,-0.853333 -0.42667,-1.973333 0,-1.44 0.48,-3.36 0.53334,-1.92 1.38667,-3.946667 0.85333,-2.08 1.92,-3.786666 1.12,-1.76 2.34667,-2.826667 1.22666,-1.12 2.4,-1.12 1.06666,0 1.81333,0.96 0.8,0.906667 0.8,2.08 0,0.693333 -0.21333,1.173333 -0.21334,0.426667 -0.48,0.426667 -0.21334,0 -0.37334,-0.32 -0.53333,-1.226667 -1.17333,-1.76 -0.58667,-0.533333 -1.22667,-0.533333 -1.06666,0 -2.13333,1.226666 -1.01333,1.173334 -1.65333,2.72 -0.53334,1.173334 -1.01334,2.826667 -0.42666,1.6 -0.74666,3.2 -0.26667,1.546667 -0.26667,2.56 0,1.813333 0.85333,1.813333 1.06667,0 2.72,-2.346666 1.22667,-1.706667 2.18667,-3.946667 1.01333,-2.24 1.70667,-3.893333 0.26666,-0.533334 0.58666,-0.693334 0.32,-0.16 0.58667,-0.16 0.64,0 0.8,0.533334 0.21333,0.533333 0.21333,0.906666 0,1.386667 -0.26666,2.506667 -0.26667,1.066667 -0.26667,2.613333 0,1.12 0.16,2.08 0.21333,0.906667 0.69333,0.906667 0.58667,0 1.49334,-1.493333 0.21333,-0.426667 0.64,-0.426667 0.48,0 0.48,0.48 0,0.693333 -0.96,1.493333 -0.96,0.746667 -1.92,0.746667 -1.28,0 -1.81334,-1.066667 -0.90666,-1.76 -0.90666,-3.146666 0,-1.44 -0.0533,-1.973334 -0.26666,0.64 -1.01333,2.026667 -0.74667,1.333333 -1.76,2.826667 -1.01333,1.439999 -2.13333,2.453333 -1.12,1.013333 -2.08,1.013333 z"
         style="font-style:normal;font-variant:normal;font-weight:bold;font-stretch:normal;font-size:53.33333206px;font-family:Inspiration;-inkscape-font-specification:'Inspiration Bold'"
         id="path901"
         inkscape:connector-curvature="0" />
    </g>
    <g
       aria-label="I.C.B."
       transform="matrix(0.84688859,0,0,0.84688859,35.993882,1043.481)"
       style="font-style:normal;font-variant:normal;font-weight:bold;font-stretch:normal;font-size:66.66666412px;line-height:1.25;font-family:sans-serif;-inkscape-font-specification:'sans-serif Bold';letter-spacing:0px;word-spacing:0px;fill:#000000;fill-opacity:1;stroke:none"
       id="flowRoot837">
      <path
         d="m 10.313334,72.589972 q -1.7266671,0 -3.5466671,-1.073333 -1.7733334,-1.073334 -3.6400001,-3.5 Q 1.68,66.103305 1.0266667,63.629972 q -0.60666669,-2.473334 -0.60666669,-4.9 0,-1.166667 0.14000001,-2.286667 0.18666667,-1.26 0.69999998,-2.846667 0.5133334,-1.633333 1.0733334,-2.66 0.1866667,-0.373333 0.5133333,-0.746667 0.3733334,-0.373333 0.4666667,-0.373333 0.046667,0 0.046667,0.09333 0,0.186667 -0.4666667,1.12 -0.7,1.4 -1.0266667,2.986667 Q 1.54,55.556638 1.54,57.189972 q 0,2.986666 0.9333334,5.88 0.98,2.94 2.5666667,5.04 1.4933334,2.006667 2.8933334,2.893333 1.4466668,0.886667 2.7066665,0.886667 1.866667,0 3.313334,-1.446667 1.493333,-1.446666 2.473333,-3.546667 0.7,-1.446666 1.166667,-3.826666 0.466666,-2.333334 0.7,-5.226667 0.28,-2.94 0.28,-6.066667 0,-3.173333 -0.28,-6.253333 -0.28,-3.080001 -0.933334,-5.786667 -0.606666,-2.706667 -1.54,-4.666667 -0.933333,-1.96 -2.286666,-2.8 -0.373334,-0.233333 -0.7,-0.233333 -0.373334,0 -0.746667,0.233333 Q 11.76,32.503304 11.48,32.876638 q -0.606666,0.84 -0.886666,2.333333 -0.28,1.446667 -0.28,3.126667 0,1.96 0.326666,3.966666 0.326667,1.960001 0.886667,3.500001 0.606667,1.493333 1.353333,2.1 0.42,0.373333 0.793334,0.373333 0.326666,0 0.513333,-0.14 0.186667,-0.186667 0.373333,-0.186667 0.326667,0 0.09333,0.28 -0.233334,0.233334 -0.7,0.466667 -0.466667,0.233333 -1.026667,0.186667 -1.26,-0.14 -2.1,-1.4 -0.8400001,-1.26 -1.2600001,-3.173334 -0.42,-1.96 -0.42,-4.013333 0,-2.193334 0.42,-4.2 0.4666671,-2.006667 1.3533331,-3.266667 0.933334,-1.26 2.24,-1.26 0.653334,0 1.26,0.28 1.773334,0.746667 2.893334,2.893333 1.166667,2.1 1.773333,5.04 0.653334,2.893334 0.886667,6.066667 0.28,3.173334 0.28,6.113334 0,2.38 -0.14,4.34 -0.09333,1.96 -0.233333,3.173333 -0.28,2.566667 -1.12,4.9 -0.840001,2.38 -2.100001,4.200001 -1.26,1.866666 -2.893333,2.94 -1.633333,1.073333 -3.453333,1.073333 z"
         style="font-style:normal;font-variant:normal;font-weight:bold;font-stretch:normal;font-size:46.66666794px;font-family:Inspiration;-inkscape-font-specification:'Inspiration Bold'"
         id="path845"
         inkscape:connector-curvature="0" />
      <path
         d="m 24.499983,63.209972 q -0.326667,0.14 -0.746667,-0.373334 -0.373333,-0.513333 -0.373333,-1.026666 0,-0.466667 0.373333,-0.793334 0.373334,-0.326666 0.466667,-0.373333 0.186667,-0.233333 0.84,-0.606667 0.7,-0.42 1.306667,-0.7 0.653333,-0.28 0.7,-0.09333 0.09333,0.186667 -0.14,0.326667 -0.186667,0.09333 -0.513334,0.56 -0.326666,0.42 -0.653333,1.586666 -0.14,0.42 -0.373333,0.84 -0.233334,0.373334 -0.886667,0.653334 z"
         style="font-style:normal;font-variant:normal;font-weight:bold;font-stretch:normal;font-size:46.66666794px;font-family:Inspiration;-inkscape-font-specification:'Inspiration Bold'"
         id="path847"
         inkscape:connector-curvature="0" />
      <path
         d="m 44.006566,67.876639 q -3.593333,0 -6.393334,-1.820001 -2.8,-1.773333 -4.76,-4.76 -1.913333,-2.986666 -2.94,-6.626667 -0.98,-3.686666 -0.98,-7.42 0,-3.266666 0.793334,-6.3 0.793333,-3.033333 2.473333,-5.413333 1.68,-2.426667 4.2,-3.826667 2.566667,-1.4 6.066667,-1.4 3.36,0 5.46,1.213333 2.146667,1.213334 3.173333,3.126667 1.026667,1.913333 1.026667,4.013333 0,2.1 -0.98,4.106667 -0.98,1.96 -2.846667,3.266667 -1.82,1.26 -4.48,1.353333 -0.42,0 -0.42,-0.186666 0,-0.373334 0.886667,-0.466667 1.913333,-0.04667 3.266667,-1.12 1.353333,-1.12 2.053333,-2.8 0.7,-1.726667 0.7,-3.593334 0,-2.006666 -0.886667,-3.873333 -0.84,-1.866667 -2.66,-3.08 -1.82,-1.213333 -4.666666,-1.213333 -2.846667,0 -4.900001,1.26 -2.053333,1.26 -3.406666,3.453333 -1.306667,2.146667 -1.96,4.9 -0.653334,2.753334 -0.653334,5.786667 0,3.686667 0.886667,7.326667 0.933333,3.64 2.66,6.673333 1.726667,2.986667 4.2,4.76 2.473334,1.82 5.646667,1.82 2.146667,0 3.966667,-0.98 1.82,-0.933333 2.94,-2.893333 1.166667,-1.913333 1.166667,-4.806667 0,-1.026666 -0.14,-2.146666 -0.14,-1.12 -0.513334,-2.380001 -0.04667,-0.14 -0.04667,-0.326666 0,-0.326667 0.186666,-0.326667 0.233334,0 0.42,0.466667 0.886667,2.66 0.886667,4.993333 0,2.753334 -1.166667,4.806667 -1.166667,2.1 -3.266667,3.266667 -2.1,1.166667 -4.993333,1.166667 z"
         style="font-style:normal;font-variant:normal;font-weight:bold;font-stretch:normal;font-size:46.66666794px;font-family:Inspiration;-inkscape-font-specification:'Inspiration Bold'"
         id="path849"
         inkscape:connector-curvature="0" />
      <path
         d="m 57.073225,63.209972 q -0.326666,0.14 -0.746667,-0.373334 -0.373333,-0.513333 -0.373333,-1.026666 0,-0.466667 0.373333,-0.793334 0.373334,-0.326666 0.466667,-0.373333 0.186667,-0.233333 0.84,-0.606667 0.7,-0.42 1.306667,-0.7 0.653333,-0.28 0.7,-0.09333 0.09333,0.186667 -0.14,0.326667 -0.186667,0.09333 -0.513333,0.56 -0.326667,0.42 -0.653334,1.586666 -0.14,0.42 -0.373333,0.84 -0.233333,0.373334 -0.886667,0.653334 z"
         style="font-style:normal;font-variant:normal;font-weight:bold;font-stretch:normal;font-size:46.66666794px;font-family:Inspiration;-inkscape-font-specification:'Inspiration Bold'"
         id="path851"
         inkscape:connector-curvature="0" />
      <path
         d="m 77.513142,80.056639 q -2.146667,0 -4.153334,-1.773334 -1.96,-1.773333 -3.313333,-5.133333 -1.306667,-3.36 -1.54,-8.12 -1.446667,0.14 -2.66,0.14 -2.706667,0 -3.966667,-0.7 -1.213334,-0.7 -1.213334,-1.82 0,-1.12 1.073334,-2.473334 1.073333,-1.353333 2.986666,-2.706666 1.913334,-1.4 4.480001,-2.52 0.886666,-4.760001 2.846666,-10.266667 2.006667,-5.553334 5.366667,-11.760001 0.326667,-0.606666 0.98,-0.606666 0.42,0 0.746667,0.28 0.326667,0.28 0.326667,0.746666 0,0.233334 -0.14,0.606667 -2.986667,6.02 -4.993334,11.06 -1.96,4.993334 -3.08,9.146667 2.1,-0.793333 4.48,-1.306667 2.38,-0.513333 4.853334,-0.606666 0.653333,0 0.653333,0.186666 0,0.186667 -0.466667,0.373334 -0.42,0.14 -1.446666,0.186666 -2.286667,0.14 -4.386667,0.653334 -2.053334,0.466666 -3.873334,1.166666 -0.7,2.706667 -1.073333,5.040001 -0.373333,2.286666 -0.466667,4.246666 4.806667,-1.026666 8.726667,-2.986666 3.966667,-2.006667 7,-4.62 3.033334,-2.613334 5.086667,-5.413334 1.306667,-1.773333 1.866667,-3.126667 0.606667,-1.4 0.606667,-2.426666 0,-1.493334 -0.933334,-2.333334 -0.933333,-0.886667 -2.473333,-1.26 -1.54,-0.42 -3.36,-0.42 -1.913334,0 -3.873334,0.373333 -1.96,0.326667 -3.546666,0.933334 -0.373334,0.09333 -0.513334,0.09333 -0.606666,0 -0.606666,-0.42 0,-0.42 0.513333,-0.653333 5.74,-3.266667 8.166667,-5.926667 2.426666,-2.66 2.426666,-4.48 0,-1.586667 -1.493333,-2.426667 -1.446667,-0.886667 -3.826667,-0.886667 -1.866666,0 -4.2,0.606667 -2.333333,0.606667 -4.806667,1.96 -2.053333,1.12 -3.733333,2.66 -1.633333,1.493334 -2.8,3.126667 -1.12,1.586667 -1.68,3.033333 -0.56,1.4 -0.42,2.38 0,0.09333 0,0.233334 0.04667,0.09333 0.04667,0.186666 0,1.166667 -0.700001,1.166667 -0.326666,0 -0.7,-0.466666 -0.326666,-0.466667 -0.326666,-1.400001 0,-1.4 0.84,-2.986666 0.886667,-1.586667 2.333333,-3.173334 1.493334,-1.633333 3.313334,-3.033333 1.82,-1.446667 3.78,-2.473334 2.52,-1.353333 4.946667,-2.006666 2.473333,-0.653334 4.526666,-0.653334 2.846667,0 4.62,1.12 1.773334,1.12 1.773334,3.126667 0,1.866667 -1.82,4.34 -1.82,2.473334 -6.113334,5.46 1.446667,-0.233333 2.706667,-0.326666 1.26,-0.14 2.333333,-0.14 4.013334,0 5.786667,1.353333 1.82,1.306667 1.82,3.406667 0,1.54 -0.886666,3.36 -0.84,1.773333 -2.38,3.686667 -2.240001,2.753333 -5.646667,5.32 -3.36,2.566667 -7.56,4.433333 -4.153334,1.866667 -8.866667,2.52 -0.09333,4.153334 0.746666,6.860001 0.886667,2.706666 2.24,4.2 1.353334,1.54 2.706667,2.146666 1.353333,0.653334 2.24,0.653334 0.653334,0 0.886667,-0.233334 0.186667,-0.233333 0.56,-0.233333 0.373333,0 0.7,0.28 0.326667,0.28 0.326667,0.606667 0,0.28 -0.326667,0.42 -1.026667,0.42 -2.053333,0.42 z M 66.033141,64.563305 q 0.513334,0 1.12,-0.09333 0.606667,-0.04667 1.306667,-0.14 -0.04667,-1.96 0.09333,-4.106667 0.14,-2.146667 0.513334,-4.48 -2.986667,1.54 -4.713334,3.453333 -1.726667,1.866667 -1.726667,3.313334 0,0.886666 0.84,1.446666 0.84,0.606667 2.566667,0.606667 z"
         style="font-style:normal;font-variant:normal;font-weight:bold;font-stretch:normal;font-size:46.66666794px;font-family:Inspiration;-inkscape-font-specification:'Inspiration Bold'"
         id="path853"
         inkscape:connector-curvature="0" />
      <path
         d="m 97.206412,63.209972 q -0.326667,0.14 -0.746667,-0.373334 -0.373334,-0.513333 -0.373334,-1.026666 0,-0.466667 0.373334,-0.793334 0.373333,-0.326666 0.466667,-0.373333 0.186666,-0.233333 0.84,-0.606667 0.7,-0.42 1.306666,-0.7 0.653334,-0.28 0.7,-0.09333 0.09333,0.186667 -0.14,0.326667 -0.186666,0.09333 -0.513333,0.56 -0.326667,0.42 -0.653333,1.586666 -0.14,0.42 -0.373334,0.84 -0.233333,0.373334 -0.886666,0.653334 z"
         style="font-style:normal;font-variant:normal;font-weight:bold;font-stretch:normal;font-size:46.66666794px;font-family:Inspiration;-inkscape-font-specification:'Inspiration Bold'"
         id="path855"
         inkscape:connector-curvature="0" />
    </g>
  </g>
</svg>
