<?xml version="1.0" encoding="UTF-8" standalone="no"?>
<!-- Created with Inkscape (http://www.inkscape.org/) -->

<svg
   xmlns:dc="http://purl.org/dc/elements/1.1/"
   xmlns:cc="http://creativecommons.org/ns#"
   xmlns:rdf="http://www.w3.org/1999/02/22-rdf-syntax-ns#"
   xmlns:svg="http://www.w3.org/2000/svg"
   xmlns="http://www.w3.org/2000/svg"
   xmlns:sodipodi="http://sodipodi.sourceforge.net/DTD/sodipodi-0.dtd"
   xmlns:inkscape="http://www.inkscape.org/namespaces/inkscape"
   width="462.83698"
   height="141.57631"
   viewBox="0 0 462.83698 141.57631"
   version="1.1"
   id="svg1730"
   inkscape:version="0.92.5 (2060ec1f9f, 2020-04-08)"
   sodipodi:docname="LOGOipvvenezuelaCONTEXTOABAJO.svg"
   inkscape:export-filename="/home/eduardo/diseños de ipvvenezuela.com/LOGOipvvenezuela.png"
   inkscape:export-xdpi="96"
   inkscape:export-ydpi="96">
  <defs
     id="defs1724" />
  <sodipodi:namedview
     id="base"
     pagecolor="#ffffff"
     bordercolor="#666666"
     borderopacity="1.0"
     inkscape:pageopacity="0.0"
     inkscape:pageshadow="2"
     inkscape:zoom="1.3461646"
     inkscape:cx="277.46336"
     inkscape:cy="22.602096"
     inkscape:document-units="px"
     inkscape:current-layer="layer1"
     showgrid="false"
     units="px"
     inkscape:showpageshadow="false"
     inkscape:window-width="1366"
     inkscape:window-height="704"
     inkscape:window-x="0"
     inkscape:window-y="27"
     inkscape:window-maximized="1"
     showguides="false"
     inkscape:guide-bbox="true"
     inkscape:snap-bbox="true"
     inkscape:bbox-nodes="true"
     inkscape:snap-bbox-edge-midpoints="true"
     inkscape:snap-bbox-midpoints="true"
     showborder="false"
     inkscape:snap-global="false"
     fit-margin-top="0"
     fit-margin-left="-0.5"
     fit-margin-right="0"
     fit-margin-bottom="0"
     inkscape:pagecheckerboard="false"
     borderlayer="false">
    <sodipodi:guide
       position="415.49501,-337.88184"
       orientation="0,1"
       id="guide2628"
       inkscape:locked="false" />
    <sodipodi:guide
       position="410.84175,-420.79762"
       orientation="0,1"
       id="guide2758"
       inkscape:locked="false" />
    <sodipodi:guide
       position="-37.773768,10.878249"
       orientation="0,1"
       id="guide3256"
       inkscape:locked="false" />
    <sodipodi:guide
       position="-37.773768,3.6696496"
       orientation="0,1"
       id="guide3258"
       inkscape:locked="false" />
    <sodipodi:guide
       position="-37.773768,11.567699"
       orientation="1,0"
       id="guide3260"
       inkscape:locked="false" />
    <sodipodi:guide
       position="274.56327,108.5546"
       orientation="0,1"
       id="guide3330"
       inkscape:locked="false" />
    <sodipodi:guide
       position="219.62443,-85.867097"
       orientation="-30.1445,13.40659"
       id="guide3426"
       inkscape:locked="false" />
  </sodipodi:namedview>
  <metadata
     id="metadata1727">
    <rdf:RDF>
      <cc:Work
         rdf:about="">
        <dc:format>image/svg+xml</dc:format>
        <dc:type
           rdf:resource="http://purl.org/dc/dcmitype/StillImage" />
        <dc:title></dc:title>
      </cc:Work>
    </rdf:RDF>
  </metadata>
  <g
     inkscape:label="Layer 1"
     inkscape:groupmode="layer"
     id="layer1"
     transform="translate(-31.994425,219.41745)">
    <text
       xml:space="preserve"
       style="font-style:normal;font-variant:normal;font-weight:bold;font-stretch:normal;font-size:6.66666651px;line-height:1.25;font-family:sans-serif;-inkscape-font-specification:'sans-serif Bold';letter-spacing:0px;word-spacing:0px;fill:#000000;fill-opacity:1;stroke:none"
       x="489.3179"
       y="514.78766"
       id="text3079"><tspan
         sodipodi:role="line"
         id="tspan3077"
         x="489.3179"
         y="520.6861" /></text>
    <flowRoot
       xml:space="preserve"
       id="flowRoot3370"
       style="font-style:normal;font-variant:normal;font-weight:bold;font-stretch:normal;font-size:6.66666651px;line-height:1.25;font-family:sans-serif;-inkscape-font-specification:'sans-serif Bold';letter-spacing:0px;word-spacing:0px;fill:#000000;fill-opacity:1;stroke:none"
       transform="translate(-49.419922,260.03843)"><flowRegion
         id="flowRegion3372"><rect
           id="rect3374"
           width="141.56631"
           height="176.49828"
           x="-49.640137"
           y="-870.22906" /></flowRegion><flowPara
         id="flowPara3376" /></flowRoot>    <flowRoot
       xml:space="preserve"
       id="flowRoot3378"
       style="font-style:normal;font-variant:normal;font-weight:bold;font-stretch:normal;font-size:6.66666651px;line-height:1.25;font-family:sans-serif;-inkscape-font-specification:'sans-serif Bold';letter-spacing:0px;word-spacing:0px;fill:#000000;fill-opacity:1;stroke:none"
       transform="translate(-49.419922,260.03843)"><flowRegion
         id="flowRegion3380"><rect
           id="rect3382"
           width="209.59169"
           height="170.9827"
           x="-80.895042"
           y="-851.84381" /></flowRegion><flowPara
         id="flowPara3384" /></flowRoot>    <path
       style="opacity:1;fill:#414141;fill-opacity:1;stroke:none;stroke-width:1;stroke-linecap:round;stroke-miterlimit:4;stroke-dasharray:none;stroke-opacity:1"
       d="m 96.641908,-210.76591 v 0.002 h -1.138672 c -2.280335,-0.0215 -5.266752,1.87848 -5.591797,5.42578 -0.0034,0 -0.006,-0.004 -0.0098,-0.004 v 17.20892 6.29883 8.57813 h 6.048828 6.298833 6.50976 10.69922 c 0,-0.003 -0.002,-0.006 -0.002,-0.01 3.54731,-0.32504 5.44727,-3.31146 5.42578,-5.5918 v -1.13864 -25.06835 c 0.53892,-3.16918 3.34912,-4.86378 5.52344,-4.84375 h 1.13867 v -0.85742 h -6.66211 -6.66016 z m -6.740234,45.61326 v 8.58204 6.29688 6.51172 10.69726 c 0.0034,0 0.0059,-0.002 0.0098,-0.002 0.325044,3.54731 3.311461,5.44728 5.591797,5.42578 h 1.138667 21.580082 6.66015 6.66211 v -0.85546 h -1.13867 c -2.17432,0.02 -4.98451,-1.67459 -5.52344,-4.84375 v -25.07223 h -0.01 v -1.13867 c 0.0215,-2.28034 -1.87847,-5.26675 -5.42578,-5.5918 0,-0.003 0.002,-0.006 0.002,-0.01 h -17.20903 -6.298824 z"
       id="path1481"
       inkscape:connector-curvature="0" />
    <g
       aria-label="palabra"
       transform="translate(71.682983,-257.7859)"
       style="font-style:normal;font-variant:normal;font-weight:bold;font-stretch:normal;font-size:6.66666651px;line-height:1.25;font-family:sans-serif;-inkscape-font-specification:'sans-serif Bold';letter-spacing:0px;word-spacing:0px;fill:#414141;fill-opacity:1;stroke:none"
       id="flowRoot1489">
      <path
         d="m 89.856001,109.09247 q -1.722667,3.952 -6.384,5.472 -1.368,0.456 -2.533334,0.456 -3.597333,0 -6.434667,-1.87467 v -0.50666 q 3.8,0.10133 6.130667,-2.48267 2.077334,-2.22933 2.077334,-5.82667 0,-5.522662 -3.850667,-7.143996 -1.216,-0.506666 -2.685334,-0.506666 h -3.394666 v 29.640002 q 0,1.31733 0.962666,2.28 0.962667,0.912 2.28,0.912 h 0.658667 v 0.50667 H 61.28 v -0.50667 h 0.658667 q 1.317333,0 2.229333,-0.912 0.962667,-0.96267 1.013333,-2.28 V 97.996471 q -0.202666,-1.722667 -1.722666,-2.533333 -0.709334,-0.405334 -1.52,-0.405334 H 61.28 v -0.506666 h 16.922667 q 9.170667,0 11.754667,5.826662 0.810667,1.92534 0.810667,4.30667 0,2.33067 -0.912,4.408 z"
         style="font-style:normal;font-variant:normal;font-weight:bold;font-stretch:normal;font-size:50.66666794px;font-family:'Cinzel Decorative';-inkscape-font-specification:'Cinzel Decorative Bold';letter-spacing:0.2px;word-spacing:0.09px;fill:#414141;fill-opacity:1"
         id="path854"
         inkscape:connector-curvature="0" />
      <path
         d="m 126.38387,129.51114 h 0.456 v 0.50667 H 110.6772 v -0.50667 h 0.456 q 1.11467,0 1.62134,-0.65867 0.55733,-0.70933 0.55733,-1.31733 0,-0.608 -0.25333,-1.216 l -2.48267,-6.232 H 98.719871 l -2.634667,6.232 q -0.253333,0.65867 -0.253333,1.26667 0,0.55733 0.506667,1.26666 0.557333,0.65867 1.722666,0.65867 h 0.405334 v 0.50667 H 87.623871 v -0.50667 h 0.456 q 1.165333,0 2.330667,-0.70933 1.165333,-0.70934 1.925333,-2.128 l 11.703999,-26.49867 q 2.38133,-5.016002 2.53333,-6.637336 h 0.456 l 15.04801,33.034666 q 0.76,1.46934 1.92533,2.22934 1.16533,0.70933 2.38133,0.70933 z m -26.802666,-11.552 h 10.133336 l -4.91467,-12.464 z"
         style="font-style:normal;font-variant:normal;font-weight:bold;font-stretch:normal;font-size:50.66666794px;font-family:'Cinzel Decorative';-inkscape-font-specification:'Cinzel Decorative Bold';letter-spacing:0.2px;word-spacing:0.09px;fill:#414141;fill-opacity:1"
         id="path856"
         inkscape:connector-curvature="0" />
      <path
         d="m 128.25585,129.51114 q 1.31733,0 2.22934,-0.912 0.96266,-0.96267 1.01333,-2.28 V 98.249804 q -0.0507,-1.317333 -1.01333,-2.229333 -0.91201,-0.962667 -2.22934,-0.962667 h -0.65867 v -0.506666 h 15.40267 l -0.0507,0.506666 h -0.608 q -1.31734,0 -2.28,0.962667 -0.96267,0.912 -0.96267,2.229333 v 29.589336 h 6.63733 q 3.69867,0 6.18134,-2.128 2.53333,-2.128 3.74933,-6.02934 h 0.50667 l -2.33067,10.33601 h -26.24534 v -0.50667 z"
         style="font-style:normal;font-variant:normal;font-weight:bold;font-stretch:normal;font-size:50.66666794px;font-family:'Cinzel Decorative';-inkscape-font-specification:'Cinzel Decorative Bold';letter-spacing:0.2px;word-spacing:0.09px;fill:#414141;fill-opacity:1"
         id="path858"
         inkscape:connector-curvature="0" />
      <path
         d="m 194.27182,129.51114 h 0.456 v 0.50667 h -16.16267 v -0.50667 h 0.456 q 1.11466,0 1.62133,-0.65867 0.55733,-0.70933 0.55733,-1.31733 0,-0.608 -0.25333,-1.216 l -2.48267,-6.232 h -11.856 l -2.63466,6.232 q -0.25334,0.65867 -0.25334,1.26667 0,0.55733 0.50667,1.26666 0.55733,0.65867 1.72267,0.65867 h 0.40533 v 0.50667 h -10.84267 v -0.50667 h 0.456 q 1.16534,0 2.33067,-0.70933 1.16533,-0.70934 1.92533,-2.128 l 11.704,-26.49867 q 2.38134,-5.016002 2.53334,-6.637336 h 0.456 l 15.048,33.034666 q 0.76,1.46934 1.92533,2.22934 1.16534,0.70933 2.38134,0.70933 z m -26.80267,-11.552 h 10.13333 l -4.91467,-12.464 z"
         style="font-style:normal;font-variant:normal;font-weight:bold;font-stretch:normal;font-size:50.66666794px;font-family:'Cinzel Decorative';-inkscape-font-specification:'Cinzel Decorative Bold';letter-spacing:0.2px;word-spacing:0.09px;fill:#414141;fill-opacity:1"
         id="path860"
         inkscape:connector-curvature="0" />
      <path
         d="m 211.54647,130.01781 h -16.06134 v -0.50667 h 0.65867 q 1.31733,0 2.22933,-0.912 0.96267,-0.912 1.01334,-2.22933 V 98.199138 q -0.0507,-1.317334 -1.01334,-2.229334 -0.912,-0.912 -2.22933,-0.912 h -0.65867 v -0.506666 h 14.69334 q 5.87733,0 9.32266,2.128 3.496,2.128 3.54667,6.536002 -0.0507,2.22933 -0.96267,3.90133 -1.672,3.14133 -5.26933,3.59733 3.90133,0.35467 6.43467,2.93867 2.53333,2.53333 2.53333,6.48533 0,4.76267 -3.85067,7.34667 -3.8,2.53334 -10.38666,2.53334 z m 3.39466,-26.14401 q -0.0507,-7.143996 -6.48533,-7.143996 h -1.46933 v 30.957336 h 2.33066 q 0.0507,0 0.10134,0 3.496,0 5.57333,-2.02667 2.07733,-2.02666 2.07733,-6.13067 0,-2.888 -1.16533,-4.76266 -2.17867,-3.496 -7.19467,-3.496 0,0 0,0 v -0.456 q 0,0 0,0 2.63467,0 4.408,-1.672 1.77334,-1.72267 1.824,-5.26934 z"
         style="font-style:normal;font-variant:normal;font-weight:bold;font-stretch:normal;font-size:50.66666794px;font-family:'Cinzel Decorative';-inkscape-font-specification:'Cinzel Decorative Bold';letter-spacing:0.2px;word-spacing:0.09px;fill:#414141;fill-opacity:1"
         id="path862"
         inkscape:connector-curvature="0" />
      <path
         d="m 243.56497,96.780471 h -2.17866 q -0.10134,0 -0.152,0 v 29.538669 q 0.0507,1.87467 1.62133,2.78667 0.76,0.40533 1.62133,0.40533 h 0.65867 v 0.50667 h -15.40267 v -0.50667 h 0.65867 q 1.824,0 2.78667,-1.57067 0.40533,-0.70933 0.456,-1.57066 V 98.249804 q -0.0507,-1.317333 -1.01334,-2.229333 -0.912,-0.962667 -2.22933,-0.962667 h -0.65867 v -0.506666 h 17.37867 q 4.91467,0 8.30933,2.128 1.72267,1.064 2.736,2.989333 1.01334,1.874669 1.01334,4.306669 0,2.38133 -0.86134,4.408 -0.81066,2.02666 -2.78666,3.54666 -1.92534,1.52 -4.66134,1.824 2.93867,0.96267 5.168,4.45867 5.472,8.76534 8.10667,10.43734 1.31733,0.81066 3.29333,0.86133 v 0.50667 h -4.96533 q -4.30667,0 -7.19467,-1.16534 -2.888,-1.216 -4.712,-4.104 -0.912,-1.46933 -2.33066,-4.408 -1.41867,-2.98933 -1.87467,-4.256 -1.368,-3.04 -3.44533,-3.39467 v -0.50666 h 1.57066 q 2.28,0 4.00267,-1.368 1.77333,-1.368 2.38133,-4.45867 0.20267,-1.064 0.20267,-1.672 0,-4.15467 -1.672,-5.978666 -1.672,-1.874666 -4.30667,-1.925333 -0.50666,0 -1.52,0 z"
         style="font-style:normal;font-variant:normal;font-weight:bold;font-stretch:normal;font-size:50.66666794px;font-family:'Cinzel Decorative';-inkscape-font-specification:'Cinzel Decorative Bold';letter-spacing:0.2px;word-spacing:0.09px;fill:#414141;fill-opacity:1"
         id="path864"
         inkscape:connector-curvature="0" />
      <path
         d="m 302.23416,129.51114 h 0.456 v 0.50667 H 286.5275 v -0.50667 h 0.456 q 1.11466,0 1.62133,-0.65867 0.55733,-0.70933 0.55733,-1.31733 0,-0.608 -0.25333,-1.216 l -2.48267,-6.232 h -11.856 l -2.63466,6.232 q -0.25334,0.65867 -0.25334,1.26667 0,0.55733 0.50667,1.26666 0.55733,0.65867 1.72267,0.65867 h 0.40533 v 0.50667 h -10.84267 v -0.50667 h 0.456 q 1.16534,0 2.33067,-0.70933 1.16533,-0.70934 1.92533,-2.128 l 11.704,-26.49867 q 2.38134,-5.016002 2.53334,-6.637336 h 0.456 l 15.048,33.034666 q 0.76,1.46934 1.92533,2.22934 1.16533,0.70933 2.38133,0.70933 z m -26.80266,-11.552 h 10.13333 l -4.91467,-12.464 z"
         style="font-style:normal;font-variant:normal;font-weight:bold;font-stretch:normal;font-size:50.66666794px;font-family:'Cinzel Decorative';-inkscape-font-specification:'Cinzel Decorative Bold';letter-spacing:0.2px;word-spacing:0.09px;fill:#414141;fill-opacity:1"
         id="path866"
         inkscape:connector-curvature="0" />
    </g>
    <g
       aria-label="V"
       transform="matrix(1.1290031,0,0,1.2181659,303.1054,-187.36984)"
       style="font-style:normal;font-variant:normal;font-weight:bold;font-stretch:normal;font-size:6.66666651px;line-height:1.25;font-family:sans-serif;-inkscape-font-specification:'sans-serif Bold';letter-spacing:0px;word-spacing:0px;fill:#3394b3;fill-opacity:1;stroke:none;stroke-width:0.85270578"
       id="flowRoot1497">
      <path
         d="m 114.20267,-6.8615314 q 1.73333,0 2.912,0.1386667 v 0.6933333 q -4.29867,0.208 -7.41867,2.0800001 -3.536,2.1493334 -5.06133,4.02133348 -1.456,1.80266672 -2.35733,2.98133342 -0.832,1.1093334 -1.664,2.7040001 -1.317338,2.4266668 -2.426672,4.7840003 L 79.605334,51.170471 q -3.189333,6.864 -3.397333,9.082667 h -0.624 L 54.576,14.978469 q -1.04,-1.941333 -2.634667,-2.912 -1.594666,-1.04 -3.258666,-1.04 H 48.128 v -0.693333 h 22.048001 v 0.693333 h -0.554667 q -1.525333,0 -2.288,0.970667 -0.693333,0.901333 -0.693333,1.733333 0,0.832 0.277333,1.664 L 78.704001,44.029137 93.056002,10.541136 q 3.258666,-7.6960004 7.626668,-11.5786672 6.448,-5.8240002 13.52,-5.8240002 z"
         style="font-style:normal;font-variant:normal;font-weight:bold;font-stretch:normal;font-size:69.33333588px;font-family:'Cinzel Decorative';-inkscape-font-specification:'Cinzel Decorative Bold';fill:#3394b3;fill-opacity:1;stroke-width:0.85270578"
         id="path851"
         inkscape:connector-curvature="0" />
    </g>
    <g
       aria-label="iva"
       transform="translate(356.36747,-156.83373)"
       style="font-style:normal;font-variant:normal;font-weight:bold;font-stretch:normal;font-size:6.66666651px;line-height:1.25;font-family:sans-serif;-inkscape-font-specification:'sans-serif Bold';letter-spacing:0px;word-spacing:0px;fill:#3394b3;fill-opacity:1;stroke:none"
       id="flowRoot1505">
      <path
         d="m 52.786667,42.511139 q 1.317333,0 2.229333,-0.912 0.962667,-0.962667 1.013333,-2.280001 v -28.12 Q 55.978667,9.8818044 55.016,8.9698044 q -0.912,-0.912 -2.229333,-0.912 H 52.128 V 7.5511377 H 67.530667 L 67.48,8.0578044 h -0.608 q -1.317333,0 -2.28,0.912 -0.962666,0.912 -0.962666,2.2293336 v 28.12 q 0,1.317334 0.962666,2.280001 0.962667,0.912 2.28,0.912 h 0.608 l 0.05067,0.506666 H 52.128 v -0.506666 z"
         style="font-style:normal;font-variant:normal;font-weight:bold;font-stretch:normal;font-size:50.66666794px;font-family:'Cinzel Decorative';-inkscape-font-specification:'Cinzel Decorative Bold';fill:#3394b3;fill-opacity:1"
         id="path844"
         inkscape:connector-curvature="0" />
      <path
         d="m 107.91199,8.0578044 h -0.456 q -1.16534,0 -2.33067,0.7093333 -1.16533,0.7093334 -1.92533,2.1280003 L 91.191985,37.393805 q -2.330667,5.016 -2.482667,6.637334 h -0.456 l -15.352,-33.085335 q -0.76,-1.4186663 -1.925334,-2.1279996 -1.165333,-0.76 -2.381333,-0.76 H 68.189318 V 7.5511377 h 16.112 v 0.5066667 h -0.405333 q -1.114667,0 -1.672,0.7093333 -0.506667,0.6586667 -0.506667,1.2666663 0,0.608 0.202667,1.216 l 8.613333,20.925334 8.917334,-20.925334 q 0.253333,-0.658666 0.253333,-1.216 0,-0.6079996 -0.557333,-1.2666663 -0.506667,-0.7093333 -1.621334,-0.7093333 h -0.456 V 7.5511377 h 10.842672 z"
         style="font-style:normal;font-variant:normal;font-weight:bold;font-stretch:normal;font-size:50.66666794px;font-family:'Cinzel Decorative';-inkscape-font-specification:'Cinzel Decorative Bold';fill:#3394b3;fill-opacity:1"
         id="path846"
         inkscape:connector-curvature="0" />
      <path
         d="m 138.00793,42.511139 h 0.456 v 0.506666 h -16.16266 v -0.506666 h 0.456 q 1.11466,0 1.62133,-0.658667 0.55733,-0.709333 0.55733,-1.317333 0,-0.608001 -0.25333,-1.216001 l -2.48267,-6.232 h -11.856 l -2.63466,6.232 q -0.25334,0.658667 -0.25334,1.266667 0,0.557334 0.50667,1.266667 0.55733,0.658667 1.72267,0.658667 h 0.40533 v 0.506666 H 99.247932 v -0.506666 h 0.456 q 1.165338,0 2.330668,-0.709334 1.16533,-0.709333 1.92533,-2.128 l 11.704,-26.498667 q 2.38134,-5.0160003 2.53334,-6.6373337 h 0.456 l 15.048,33.0346677 q 0.76,1.469333 1.92533,2.229333 1.16533,0.709334 2.38133,0.709334 z M 111.20527,30.959138 h 10.13333 l -4.91467,-12.464 z"
         style="font-style:normal;font-variant:normal;font-weight:bold;font-stretch:normal;font-size:50.66666794px;font-family:'Cinzel Decorative';-inkscape-font-specification:'Cinzel Decorative Bold';fill:#3394b3;fill-opacity:1"
         id="path848"
         inkscape:connector-curvature="0" />
    </g>
    <path
       inkscape:connector-curvature="0"
       id="path1507"
       d="m 31.494425,-219.41734 v 1.05518 h 1.401256 c 2.672493,-0.0246 6.125599,2.05543 6.794773,5.9463 v 30.8637 1.40125 c -0.02641,2.8062 2.311662,6.48131 6.677,6.88131 0,0.004 -0.0021,0.007 -0.0024,0.0123 h 21.177483 7.751377 7.443725 v -10.5563 -7.75138 -21.17747 c -0.0047,4.9e-4 -0.0078,0.005 -0.01206,0.005 -0.400005,-4.36533 -4.075107,-6.70341 -6.881301,-6.677 h -1.401257 v -0.003 H 47.886446 39.690415 Z"
       style="opacity:1;fill:#3394b3;fill-opacity:1;stroke:none;stroke-width:1;stroke-linecap:round;stroke-miterlimit:4;stroke-dasharray:none;stroke-opacity:1" />
    <path
       style="opacity:1;fill:#414141;fill-opacity:1;stroke:none;stroke-width:1;stroke-linecap:round;stroke-miterlimit:4;stroke-dasharray:none;stroke-opacity:1"
       d="m 41.096986,-127.84924 v -0.85743 h 1.138672 c 2.171688,0.02 4.977709,-1.67026 5.521484,-4.83203 v -25.08008 -1.13867 c -0.02146,-2.28034 1.878475,-5.26676 5.425782,-5.5918 0,-0.003 -0.0016,-0.006 -0.002,-0.01 h 17.208985 6.298828 6.048828 v 8.57814 6.29883 17.20898 c -0.0038,-3.9e-4 -0.0063,-0.004 -0.0098,-0.004 -0.325047,3.5473 -3.311462,5.44723 -5.591797,5.42578 h -1.138672 v 0.002 H 54.417218 47.757061 Z"
       id="path1509"
       inkscape:connector-curvature="0" />
    <g
       aria-label="iglesia cristiana bíblica"
       transform="matrix(3.7583645,0,0,3.7583645,-253.95847,-595.98013)"
       style="font-style:normal;font-variant:normal;font-weight:bold;font-stretch:normal;font-size:6.66666651px;line-height:1.25;font-family:sans-serif;-inkscape-font-specification:'sans-serif Bold';letter-spacing:0px;word-spacing:0px;fill:#414141;fill-opacity:1;stroke:none;stroke-width:0.26607317"
       id="flowRoot854">
      <path
         d="m 90.99362,137.70286 q 0.173333,0 0.293333,-0.12 0.126667,-0.12666 0.133333,-0.3 v -3.7 q -0.0067,-0.17333 -0.133333,-0.29333 -0.12,-0.12 -0.293333,-0.12 h -0.08667 v -0.0667 h 2.026667 l -0.0067,0.0667 h -0.08 q -0.173333,0 -0.3,0.12 -0.126667,0.12 -0.126667,0.29333 v 3.7 q 0,0.17334 0.126667,0.3 0.126667,0.12 0.3,0.12 h 0.08 l 0.0067,0.0667 H 90.90695 v -0.0667 z"
         style="font-style:normal;font-variant:normal;font-weight:bold;font-stretch:normal;font-family:'Cinzel Decorative';-inkscape-font-specification:'Cinzel Decorative Bold';fill:#414141;fill-opacity:1;stroke-width:0.10512034"
         id="path937"
         inkscape:connector-curvature="0" />
      <path
         d="m 98.513609,135.60286 h -0.1 q -0.16,0 -0.246667,0.08 -0.08667,0.0733 -0.08667,0.22 v 1.1 q -0.26,0.34 -0.86,0.6 -0.6,0.26 -1.346667,0.26 -1.14,0 -1.833333,-0.65333 -0.686667,-0.66 -0.686667,-1.77333 0,-1.12 0.686667,-1.77334 0.693333,-0.65333 1.873333,-0.65333 0.533333,0 1.033333,0.10667 0.5,0.1 0.806667,0.25333 l 0.01333,1.14667 h -0.06 q -0.173333,-0.64667 -0.593333,-0.93334 -0.42,-0.29333 -1,-0.29333 -0.806667,0 -1.24,0.58 -0.433333,0.57333 -0.433333,1.58 0,1 0.393333,1.56667 0.4,0.56666 1.126667,0.56666 0.526666,0 0.88,-0.3 0.173333,-0.15333 0.253333,-0.36 v -1.02 q 0,-0.14666 -0.09333,-0.22 -0.08667,-0.08 -0.253334,-0.08 h -0.106666 v -0.0667 h 1.873333 z"
         style="font-style:normal;font-variant:normal;font-weight:bold;font-stretch:normal;font-family:'Cinzel Decorative';-inkscape-font-specification:'Cinzel Decorative Bold';fill:#414141;fill-opacity:1;stroke-width:0.10512034"
         id="path939"
         inkscape:connector-curvature="0" />
      <path
         d="m 98.826922,137.70286 q 0.173334,0 0.293334,-0.12 0.126666,-0.12666 0.133333,-0.3 v -3.69333 q -0.0067,-0.17333 -0.133333,-0.29333 -0.12,-0.12667 -0.293334,-0.12667 h -0.08667 v -0.0667 h 2.026668 l -0.007,0.0667 h -0.08 q -0.17334,0 -0.3,0.12667 -0.12667,0.12 -0.12667,0.29333 v 3.89333 h 0.87333 q 0.48667,0 0.81334,-0.28 0.33333,-0.28 0.49333,-0.79333 h 0.0667 l -0.30667,1.36 h -3.453338 v -0.0667 z"
         style="font-style:normal;font-variant:normal;font-weight:bold;font-stretch:normal;font-family:'Cinzel Decorative';-inkscape-font-specification:'Cinzel Decorative Bold';fill:#414141;fill-opacity:1;stroke-width:0.10512034"
         id="path941"
         inkscape:connector-curvature="0" />
      <path
         d="m 102.89358,137.70286 q 0.17333,0 0.29333,-0.12 0.12667,-0.12666 0.13334,-0.3 v -3.71333 q -0.02,-0.23333 -0.22,-0.34667 -0.1,-0.0533 -0.20667,-0.0533 h -0.0867 v -0.0667 h 2.55334 q 0.20666,0 0.45333,-0.04 0.24667,-0.04 0.34667,-0.08 v 1.16667 h -0.0667 v -0.08 q 0,-0.3 -0.18,-0.48 -0.17333,-0.18667 -0.47333,-0.2 h -1.12 v 1.94 h 0.88 q 0.24666,-0.007 0.40666,-0.16667 0.16,-0.16666 0.16,-0.40666 v -0.06 h 0.0667 v 1.54 h -0.0667 v -0.0533 q 0,-0.33333 -0.26666,-0.49333 -0.13334,-0.0733 -0.29334,-0.08 h -0.88666 v 1.87333 h 0.87333 q 0.48667,0 0.81333,-0.28 0.33334,-0.28 0.49334,-0.79333 h 0.0667 l -0.30666,1.36 h -3.45334 v -0.0667 z"
         style="font-style:normal;font-variant:normal;font-weight:bold;font-stretch:normal;font-family:'Cinzel Decorative';-inkscape-font-specification:'Cinzel Decorative Bold';fill:#414141;fill-opacity:1;stroke-width:0.10512034"
         id="path943"
         inkscape:connector-curvature="0" />
      <path
         d="m 107.06691,137.14953 q 0,-0.48 0.20666,-0.82 h 0.06 q -0.007,0.0533 -0.007,0.10667 0,0.46 0.32666,0.80666 0.33334,0.34 0.90667,0.34 0.44667,0 0.69333,-0.21333 0.25334,-0.21333 0.25334,-0.54 0,-0.39333 -0.53334,-0.68667 l -1.16,-0.76666 q -0.34666,-0.2 -0.5,-0.48 -0.14666,-0.28667 -0.14666,-0.58 0,-0.62667 0.39333,-0.96667 0.4,-0.34 1.02,-0.34 0.36667,0 0.90667,0.0667 h 0.42 l -0.0867,0.98 h -0.0667 q 0,-0.34667 -0.26,-0.55334 -0.25333,-0.21333 -0.68,-0.21333 -0.52,0 -0.75333,0.32 -0.12,0.15333 -0.12,0.34667 0,0.32 0.46667,0.59333 l 1.27333,0.82667 q 0.6,0.34666 0.6,1.02 0,0.71333 -0.48667,1.09333 -0.48,0.37333 -1.28,0.37333 -0.45333,0 -0.84,-0.10666 -0.38,-0.11334 -0.56,-0.3 -0.0467,-0.12667 -0.0467,-0.30667 z"
         style="font-style:normal;font-variant:normal;font-weight:bold;font-stretch:normal;font-family:'Cinzel Decorative';-inkscape-font-specification:'Cinzel Decorative Bold';fill:#414141;fill-opacity:1;stroke-width:0.10512034"
         id="path945"
         inkscape:connector-curvature="0" />
      <path
         d="m 110.91356,137.70286 q 0.17334,0 0.29334,-0.12 0.12666,-0.12666 0.13333,-0.3 v -3.7 q -0.007,-0.17333 -0.13333,-0.29333 -0.12,-0.12 -0.29334,-0.12 h -0.0867 v -0.0667 h 2.02666 l -0.007,0.0667 h -0.08 q -0.17334,0 -0.3,0.12 -0.12667,0.12 -0.12667,0.29333 v 3.7 q 0,0.17334 0.12667,0.3 0.12666,0.12 0.3,0.12 h 0.08 l 0.007,0.0667 h -2.02666 v -0.0667 z"
         style="font-style:normal;font-variant:normal;font-weight:bold;font-stretch:normal;font-family:'Cinzel Decorative';-inkscape-font-specification:'Cinzel Decorative Bold';fill:#414141;fill-opacity:1;stroke-width:0.10512034"
         id="path947"
         inkscape:connector-curvature="0" />
      <path
         d="m 117.92022,137.70286 h 0.06 v 0.0667 h -2.12667 v -0.0667 h 0.06 q 0.14667,0 0.21333,-0.0867 0.0733,-0.0933 0.0733,-0.17334 0,-0.08 -0.0333,-0.16 l -0.32666,-0.82 h -1.56 l -0.34667,0.82 q -0.0333,0.0867 -0.0333,0.16667 0,0.0733 0.0667,0.16667 0.0733,0.0867 0.22667,0.0867 h 0.0533 v 0.0667 h -1.42666 v -0.0667 h 0.06 q 0.15333,0 0.30666,-0.0933 0.15334,-0.0933 0.25334,-0.28 l 1.54,-3.48667 q 0.31333,-0.66 0.33333,-0.87333 h 0.06 l 1.98,4.34667 q 0.1,0.19333 0.25333,0.29333 0.15334,0.0933 0.31334,0.0933 z m -3.52667,-1.52 h 1.33333 l -0.64666,-1.64 z"
         style="font-style:normal;font-variant:normal;font-weight:bold;font-stretch:normal;font-family:'Cinzel Decorative';-inkscape-font-specification:'Cinzel Decorative Bold';fill:#414141;fill-opacity:1;stroke-width:0.10512034"
         id="path949"
         inkscape:connector-curvature="0" />
      <path
         d="m 122.49353,137.8562 q -1.28666,0 -2.02,-0.64667 -0.73333,-0.64667 -0.73333,-1.77333 0,-1.12667 0.72667,-1.77334 0.72666,-0.65333 1.99333,-0.65333 0.96667,0 1.66,0.36 l 0.0133,1.14667 h -0.0533 q -0.34,-1.22667 -1.55333,-1.22667 -0.78667,0 -1.24667,0.57333 -0.45333,0.56667 -0.45333,1.55334 0,0.98666 0.43333,1.56666 0.44,0.58 1.18667,0.6 0.77333,0 1.18,-0.38666 0.41333,-0.4 0.57333,-1.37334 h 0.0533 l 0.0667,1.14667 q -0.54,0.89333 -1.82667,0.88667 z"
         style="fill:#3394b3;fill-opacity:1;stroke-width:0.10512034"
         id="path951"
         inkscape:connector-curvature="0" />
      <path
         d="m 126.74019,133.3962 h -0.28667 q -0.0133,0 -0.02,0 v 3.88666 q 0.007,0.24667 0.21334,0.36667 0.1,0.0533 0.21333,0.0533 h 0.0867 v 0.0667 h -2.02667 v -0.0667 h 0.0867 q 0.24,0 0.36666,-0.20666 0.0533,-0.0933 0.06,-0.20667 v -3.7 q -0.007,-0.17333 -0.13333,-0.29333 -0.12,-0.12667 -0.29333,-0.12667 h -0.0867 v -0.0667 h 2.28667 q 0.64666,0 1.09333,0.28 0.22667,0.14 0.36,0.39334 0.13333,0.24666 0.13333,0.56666 0,0.31334 -0.11333,0.58 -0.10667,0.26667 -0.36667,0.46667 -0.25333,0.2 -0.61333,0.24 0.38667,0.12667 0.68,0.58667 0.72,1.15333 1.06667,1.37333 0.17333,0.10667 0.43333,0.11333 v 0.0667 h -0.65333 q -0.56667,0 -0.94667,-0.15333 -0.38,-0.16 -0.62,-0.54 -0.12,-0.19334 -0.30667,-0.58 -0.18666,-0.39334 -0.24666,-0.56 -0.18,-0.4 -0.45334,-0.44667 v -0.0667 h 0.20667 q 0.3,0 0.52667,-0.18 0.23333,-0.18 0.31333,-0.58666 0.0267,-0.14 0.0267,-0.22 0,-0.54667 -0.22,-0.78667 -0.22,-0.24667 -0.56667,-0.25333 -0.0667,0 -0.2,0 z"
         style="fill:#3394b3;fill-opacity:1;stroke-width:0.10512034"
         id="path953"
         inkscape:connector-curvature="0" />
      <path
         d="m 129.88017,137.70286 q 0.17333,0 0.29333,-0.12 0.12667,-0.12666 0.13334,-0.3 v -3.7 q -0.007,-0.17333 -0.13334,-0.29333 -0.12,-0.12 -0.29333,-0.12 h -0.0867 v -0.0667 h 2.02667 l -0.007,0.0667 h -0.08 q -0.17333,0 -0.3,0.12 -0.12666,0.12 -0.12666,0.29333 v 3.7 q 0,0.17334 0.12666,0.3 0.12667,0.12 0.3,0.12 h 0.08 l 0.007,0.0667 h -2.02667 v -0.0667 z"
         style="fill:#3394b3;fill-opacity:1;stroke-width:0.10512034"
         id="path955"
         inkscape:connector-curvature="0" />
      <path
         d="m 132.42017,137.14953 q 0,-0.48 0.20667,-0.82 h 0.06 q -0.007,0.0533 -0.007,0.10667 0,0.46 0.32667,0.80666 0.33333,0.34 0.90666,0.34 0.44667,0 0.69334,-0.21333 0.25333,-0.21333 0.25333,-0.54 0,-0.39333 -0.53333,-0.68667 l -1.16,-0.76666 q -0.34667,-0.2 -0.5,-0.48 -0.14667,-0.28667 -0.14667,-0.58 0,-0.62667 0.39333,-0.96667 0.4,-0.34 1.02,-0.34 0.36667,0 0.90667,0.0667 h 0.42 l -0.0867,0.98 h -0.0667 q 0,-0.34667 -0.26,-0.55334 -0.25334,-0.21333 -0.68,-0.21333 -0.52,0 -0.75334,0.32 -0.12,0.15333 -0.12,0.34667 0,0.32 0.46667,0.59333 l 1.27333,0.82667 q 0.6,0.34666 0.6,1.02 0,0.71333 -0.48666,1.09333 -0.48,0.37333 -1.28,0.37333 -0.45334,0 -0.84,-0.10666 -0.38,-0.11334 -0.56,-0.3 -0.0467,-0.12667 -0.0467,-0.30667 z"
         style="fill:#3394b3;fill-opacity:1;stroke-width:0.10512034"
         id="path957"
         inkscape:connector-curvature="0" />
      <path
         d="m 138.66683,133.3762 v 3.91333 q 0.007,0.17333 0.12667,0.29333 0.12666,0.12 0.3,0.12 h 0.08 l 0.007,0.0667 h -2.02666 v -0.0667 h 0.0867 q 0.16667,0 0.28667,-0.12 0.12667,-0.12 0.14,-0.28666 v -3.92 h -0.9 q -0.30667,0.007 -0.48667,0.19333 -0.18,0.18667 -0.18,0.48667 v 0.08 h -0.0667 v -1.16 q 0.0933,0.04 0.33333,0.08 0.24667,0.04 0.45333,0.04 h 2.68667 q 0.32667,-0.007 0.53333,-0.0533 0.20667,-0.0467 0.25334,-0.0667 v 1.16 h -0.0667 v -0.08 q 0,-0.3 -0.18,-0.48667 -0.18,-0.18667 -0.48667,-0.19333 z"
         style="fill:#3394b3;fill-opacity:1;stroke-width:0.10512034"
         id="path959"
         inkscape:connector-curvature="0" />
      <path
         d="m 140.74682,137.70286 q 0.17333,0 0.29333,-0.12 0.12667,-0.12666 0.13334,-0.3 v -3.7 q -0.007,-0.17333 -0.13334,-0.29333 -0.12,-0.12 -0.29333,-0.12 h -0.0867 v -0.0667 h 2.02667 l -0.007,0.0667 h -0.08 q -0.17333,0 -0.3,0.12 -0.12666,0.12 -0.12666,0.29333 v 3.7 q 0,0.17334 0.12666,0.3 0.12667,0.12 0.3,0.12 h 0.08 l 0.007,0.0667 h -2.02667 v -0.0667 z"
         style="fill:#3394b3;fill-opacity:1;stroke-width:0.10512034"
         id="path961"
         inkscape:connector-curvature="0" />
      <path
         d="m 147.75347,137.70286 h 0.06 v 0.0667 h -2.12666 v -0.0667 h 0.06 q 0.14666,0 0.21333,-0.0867 0.0733,-0.0933 0.0733,-0.17334 0,-0.08 -0.0333,-0.16 l -0.32667,-0.82 h -1.56 l -0.34666,0.82 q -0.0333,0.0867 -0.0333,0.16667 0,0.0733 0.0667,0.16667 0.0733,0.0867 0.22667,0.0867 h 0.0533 v 0.0667 h -1.42667 v -0.0667 h 0.06 q 0.15334,0 0.30667,-0.0933 0.15333,-0.0933 0.25333,-0.28 l 1.54,-3.48667 q 0.31334,-0.66 0.33334,-0.87333 h 0.06 l 1.98,4.34667 q 0.1,0.19333 0.25333,0.29333 0.15333,0.0933 0.31333,0.0933 z m -3.52666,-1.52 h 1.33333 l -0.64667,-1.64 z"
         style="fill:#3394b3;fill-opacity:1;stroke-width:0.10512034"
         id="path963"
         inkscape:connector-curvature="0" />
      <path
         d="m 153.05347,133.16953 q -0.16667,0 -0.28667,0.12 -0.12,0.11333 -0.12666,0.28 v 3.44 q 0,0.44667 0.06,0.75333 l 0.02,0.1 h -0.06 l -3.36667,-3.20666 v 2.64666 q 0,0.16667 0.12,0.28667 0.12,0.11333 0.28667,0.11333 h 0.12666 v 0.0667 h -2.02 v -0.0667 h 0.12 q 0.17334,0 0.29334,-0.11333 0.12,-0.12 0.12,-0.29333 v -3.46 q 0,-0.44 -0.06,-0.73334 l -0.0133,-0.1 h 0.06 l 3.36667,3.20667 v -2.63333 q -0.007,-0.17334 -0.12667,-0.28667 -0.12,-0.12 -0.28666,-0.12 h -0.12 v -0.0667 h 2.02 v 0.0667 z"
         style="fill:#3394b3;fill-opacity:1;stroke-width:0.10512034"
         id="path965"
         inkscape:connector-curvature="0" />
      <path
         d="m 158.25347,137.70286 h 0.06 v 0.0667 h -2.12667 v -0.0667 h 0.06 q 0.14667,0 0.21333,-0.0867 0.0733,-0.0933 0.0733,-0.17334 0,-0.08 -0.0333,-0.16 l -0.32666,-0.82 h -1.56 l -0.34667,0.82 q -0.0333,0.0867 -0.0333,0.16667 0,0.0733 0.0667,0.16667 0.0733,0.0867 0.22667,0.0867 h 0.0533 v 0.0667 h -1.42666 v -0.0667 h 0.06 q 0.15333,0 0.30666,-0.0933 0.15334,-0.0933 0.25334,-0.28 l 1.54,-3.48667 q 0.31333,-0.66 0.33333,-0.87333 h 0.06 l 1.98,4.34667 q 0.1,0.19333 0.25333,0.29333 0.15334,0.0933 0.31334,0.0933 z m -3.52667,-1.52 h 1.33333 l -0.64666,-1.64 z"
         style="fill:#3394b3;fill-opacity:1;stroke-width:0.10512034"
         id="path967"
         inkscape:connector-curvature="0" />
      <path
         d="m 162.16679,137.76953 h -2.11334 v -0.0667 h 0.0867 q 0.17333,0 0.29333,-0.12 0.12667,-0.12 0.13334,-0.29333 v -3.70667 q -0.007,-0.17333 -0.13334,-0.29333 -0.12,-0.12 -0.29333,-0.12 h -0.0867 v -0.0667 h 1.93334 q 0.77333,0 1.22666,0.28 0.46,0.28 0.46667,0.86 -0.007,0.29334 -0.12667,0.51334 -0.22,0.41333 -0.69333,0.47333 0.51333,0.0467 0.84667,0.38667 0.33333,0.33333 0.33333,0.85333 0,0.62667 -0.50667,0.96667 -0.5,0.33333 -1.36666,0.33333 z m 0.44666,-3.44 q -0.007,-0.94 -0.85333,-0.94 h -0.19333 v 4.07333 h 0.30666 q 0.007,0 0.0133,0 0.46,0 0.73333,-0.26666 0.27333,-0.26667 0.27333,-0.80667 0,-0.38 -0.15333,-0.62667 -0.28667,-0.46 -0.94667,-0.46 0,0 0,0 v -0.06 q 0,0 0,0 0.34667,0 0.58,-0.22 0.23334,-0.22666 0.24,-0.69333 z"
         style="font-style:normal;font-variant:normal;font-weight:bold;font-stretch:normal;font-family:'Cinzel Decorative';-inkscape-font-specification:'Cinzel Decorative Bold';fill:#414141;fill-opacity:1;stroke-width:0.10512034"
         id="path969"
         inkscape:connector-curvature="0" />
      <path
         d="m 165.45343,132.68953 -0.0467,-0.0467 q 0.28667,-0.49333 0.96,-1.09333 0.32,0.16667 0.44667,0.54 -0.68,0.43333 -1.36,0.6 z m -0.85333,5.01333 q 0.17333,0 0.29333,-0.12 0.12667,-0.12666 0.13333,-0.3 v -3.7 q -0.007,-0.17333 -0.13333,-0.29333 -0.12,-0.12 -0.29333,-0.12 h -0.0867 v -0.0667 h 2.02667 l -0.007,0.0667 h -0.08 q -0.17333,0 -0.3,0.12 -0.12667,0.12 -0.12667,0.29333 v 3.7 q 0,0.17334 0.12667,0.3 0.12667,0.12 0.3,0.12 h 0.08 l 0.007,0.0667 h -2.02667 v -0.0667 z"
         style="font-style:normal;font-variant:normal;font-weight:bold;font-stretch:normal;font-family:'Cinzel Decorative';-inkscape-font-specification:'Cinzel Decorative Bold';fill:#414141;fill-opacity:1;stroke-width:0.10512034"
         id="path971"
         inkscape:connector-curvature="0" />
      <path
         d="m 169.2001,137.76953 h -2.11334 v -0.0667 h 0.0867 q 0.17333,0 0.29333,-0.12 0.12667,-0.12 0.13334,-0.29333 v -3.70667 q -0.007,-0.17333 -0.13334,-0.29333 -0.12,-0.12 -0.29333,-0.12 h -0.0867 v -0.0667 h 1.93334 q 0.77333,0 1.22666,0.28 0.46,0.28 0.46667,0.86 -0.007,0.29334 -0.12667,0.51334 -0.22,0.41333 -0.69333,0.47333 0.51333,0.0467 0.84667,0.38667 0.33333,0.33333 0.33333,0.85333 0,0.62667 -0.50667,0.96667 -0.5,0.33333 -1.36666,0.33333 z m 0.44666,-3.44 q -0.007,-0.94 -0.85333,-0.94 h -0.19333 v 4.07333 h 0.30666 q 0.007,0 0.0133,0 0.46,0 0.73333,-0.26666 0.27333,-0.26667 0.27333,-0.80667 0,-0.38 -0.15333,-0.62667 -0.28667,-0.46 -0.94667,-0.46 0,0 0,0 v -0.06 q 0,0 0,0 0.34667,0 0.58,-0.22 0.23334,-0.22666 0.24,-0.69333 z"
         style="font-style:normal;font-variant:normal;font-weight:bold;font-stretch:normal;font-family:'Cinzel Decorative';-inkscape-font-specification:'Cinzel Decorative Bold';fill:#414141;fill-opacity:1;stroke-width:0.10512034"
         id="path973"
         inkscape:connector-curvature="0" />
      <path
         d="m 171.63341,137.70286 q 0.17333,0 0.29333,-0.12 0.12667,-0.12666 0.13333,-0.3 v -3.69333 q -0.007,-0.17333 -0.13333,-0.29333 -0.12,-0.12667 -0.29333,-0.12667 h -0.0867 v -0.0667 h 2.02667 l -0.007,0.0667 h -0.08 q -0.17333,0 -0.3,0.12667 -0.12667,0.12 -0.12667,0.29333 v 3.89333 h 0.87334 q 0.48666,0 0.81333,-0.28 0.33333,-0.28 0.49333,-0.79333 h 0.0667 l -0.30667,1.36 h -3.45333 v -0.0667 z"
         style="font-style:normal;font-variant:normal;font-weight:bold;font-stretch:normal;font-family:'Cinzel Decorative';-inkscape-font-specification:'Cinzel Decorative Bold';fill:#414141;fill-opacity:1;stroke-width:0.10512034"
         id="path975"
         inkscape:connector-curvature="0" />
      <path
         d="m 175.70006,137.70286 q 0.17334,0 0.29334,-0.12 0.12666,-0.12666 0.13333,-0.3 v -3.7 q -0.007,-0.17333 -0.13333,-0.29333 -0.12,-0.12 -0.29334,-0.12 h -0.0867 v -0.0667 h 2.02666 l -0.007,0.0667 h -0.08 q -0.17334,0 -0.3,0.12 -0.12667,0.12 -0.12667,0.29333 v 3.7 q 0,0.17334 0.12667,0.3 0.12666,0.12 0.3,0.12 h 0.08 l 0.007,0.0667 h -2.02666 v -0.0667 z"
         style="font-style:normal;font-variant:normal;font-weight:bold;font-stretch:normal;font-family:'Cinzel Decorative';-inkscape-font-specification:'Cinzel Decorative Bold';fill:#414141;fill-opacity:1;stroke-width:0.10512034"
         id="path977"
         inkscape:connector-curvature="0" />
      <path
         d="m 180.81339,137.8562 q -1.28667,0 -2.02,-0.64667 -0.73333,-0.64667 -0.73333,-1.77333 0,-1.12667 0.72666,-1.77334 0.72667,-0.65333 1.99334,-0.65333 0.96666,0 1.66,0.36 l 0.0133,1.14667 h -0.0533 q -0.34,-1.22667 -1.55334,-1.22667 -0.78666,0 -1.24666,0.57333 -0.45334,0.56667 -0.45334,1.55334 0,0.98666 0.43334,1.56666 0.44,0.58 1.18666,0.6 0.77334,0 1.18,-0.38666 0.41334,-0.4 0.57334,-1.37334 h 0.0533 l 0.0667,1.14667 q -0.54,0.89333 -1.82667,0.88667 z"
         style="font-style:normal;font-variant:normal;font-weight:bold;font-stretch:normal;font-family:'Cinzel Decorative';-inkscape-font-specification:'Cinzel Decorative Bold';fill:#414141;fill-opacity:1;stroke-width:0.10512034"
         id="path979"
         inkscape:connector-curvature="0" />
      <path
         d="m 187.88004,137.70286 h 0.06 v 0.0667 h -2.12666 v -0.0667 h 0.06 q 0.14666,0 0.21333,-0.0867 0.0733,-0.0933 0.0733,-0.17334 0,-0.08 -0.0333,-0.16 l -0.32667,-0.82 h -1.56 l -0.34666,0.82 q -0.0333,0.0867 -0.0333,0.16667 0,0.0733 0.0667,0.16667 0.0733,0.0867 0.22667,0.0867 h 0.0533 v 0.0667 h -1.42667 v -0.0667 h 0.06 q 0.15334,0 0.30667,-0.0933 0.15333,-0.0933 0.25333,-0.28 l 1.54,-3.48667 q 0.31334,-0.66 0.33334,-0.87333 h 0.06 l 1.98,4.34667 q 0.1,0.19333 0.25333,0.29333 0.15333,0.0933 0.31333,0.0933 z m -3.52666,-1.52 h 1.33333 l -0.64667,-1.64 z"
         style="font-style:normal;font-variant:normal;font-weight:bold;font-stretch:normal;font-family:'Cinzel Decorative';-inkscape-font-specification:'Cinzel Decorative Bold';fill:#414141;fill-opacity:1;stroke-width:0.10512034"
         id="path981"
         inkscape:connector-curvature="0" />
    </g>
    <text
       xml:space="preserve"
       style="font-style:normal;font-variant:normal;font-weight:bold;font-stretch:normal;font-size:6.66666651px;line-height:1.25;font-family:sans-serif;-inkscape-font-specification:'sans-serif Bold';letter-spacing:0px;word-spacing:0px;fill:#000000;fill-opacity:1;stroke:none"
       x="283.82098"
       y="7.5393066"
       id="text866"><tspan
         sodipodi:role="line"
         id="tspan864"
         x="283.82098"
         y="13.437744"></tspan></text>
  </g>
</svg>
